<?xml version="1.0" encoding="utf-8"?>
<!-- Generator: Adobe Illustrator 22.1.0, SVG Export Plug-In . SVG Version: 6.00 Build 0)  -->
<svg version="1.1" id="Layer_1" xmlns="http://www.w3.org/2000/svg" xmlns:xlink="http://www.w3.org/1999/xlink" x="0px" y="0px"
	 viewBox="0 0 1600 800" style="enable-background:new 0 0 1600 800;" xml:space="preserve">
<style type="text/css">
	.st0{opacity:8.000000e-02;}
	.st1{stroke:#000000;stroke-miterlimit:10;}
</style>
<g id="XMLID_30_" class="st0">
	<path id="XMLID_47_" class="st1" d="M1403.8,425.1C1182.7,273,1097.4,131.6,1084.3,0H1600v475.8
		C1543.2,487.7,1478.3,476.4,1403.8,425.1z"/>
	<path id="XMLID_48_" class="st1" d="M428.7,0c-2.9,14.7-8.4,29-16.7,42.5L99.5,550.7C77.2,587,39.6,608.5,0,612V0H428.7z"/>
	<circle id="XMLID_49_" class="st1" cx="565" cy="167" r="17"/>
	<circle id="XMLID_50_" class="st1" cx="1052.7" cy="641" r="17"/>
	<circle id="XMLID_51_" class="st1" cx="818" cy="249.5" r="31"/>
	<circle id="XMLID_52_" class="st1" cx="443" cy="658" r="31"/>
	<circle id="XMLID_53_" class="st1" cx="1151" cy="378.5" r="31"/>
	<circle id="XMLID_54_" class="st1" cx="380.5" cy="181" r="9"/>
	<circle id="XMLID_55_" class="st1" cx="742.9" cy="673.8" r="9"/>
	<circle id="XMLID_56_" class="st1" cx="371.5" cy="520.1" r="9"/>
	<circle id="XMLID_57_" class="st1" cx="345.1" cy="230.1" r="15.9"/>
	<circle id="XMLID_58_" class="st1" cx="168.4" cy="658" r="15.9"/>
	<circle id="XMLID_59_" class="st1" cx="666.1" cy="440.1" r="15.9"/>
	<circle id="XMLID_60_" class="st1" cx="1450" cy="673.8" r="15.9"/>
</g>
</svg>
