<?xml version="1.0" encoding="utf-8"?>
<!-- Generator: Adobe Illustrator 17.0.0, SVG Export Plug-In . SVG Version: 6.00 Build 0)  -->
<!DOCTYPE svg PUBLIC "-//W3C//DTD SVG 1.1//EN" "http://www.w3.org/Graphics/SVG/1.1/DTD/svg11.dtd">
<svg version="1.1" id="Layer_1" xmlns="http://www.w3.org/2000/svg" xmlns:xlink="http://www.w3.org/1999/xlink" x="0px" y="0px"
	 width="800px" height="800px" viewBox="20 20 1000 10" enable-background="new 0 0 800 800" xml:space="preserve">
<g>
	<rect x="285.687" y="57.723" fill="#FFEA8C" width="305.875" height="23.414"/>
	<path d="M591.562,82.215H285.687c-0.596,0-1.078-0.482-1.078-1.078V57.723c0-0.596,0.482-1.078,1.078-1.078h305.875
		c0.596,0,1.078,0.482,1.078,1.078v23.414C592.641,81.733,592.158,82.215,591.562,82.215z M286.765,80.059h303.719V58.801H286.765
		V80.059z"/>
</g>
<path d="M591.562,168.773H285.687c-0.596,0-1.078-0.482-1.078-1.078V81.137c0-0.596,0.482-1.078,1.078-1.078h305.875
	c0.596,0,1.078,0.482,1.078,1.078v86.559C592.641,168.292,592.158,168.773,591.562,168.773z"/>
<rect x="286.765" y="82.215" fill="#FFFFFF" width="303.719" height="84.402"/>
<g>
	<path d="M584.508,70.508h-11.323c-0.596,0-1.078-0.482-1.078-1.078c0-0.596,0.482-1.078,1.078-1.078h11.323
		c0.596,0,1.078,0.482,1.078,1.078C585.586,70.025,585.104,70.508,584.508,70.508z"/>
</g>
<g>
	<path fill="#FFFFFF" d="M566.076,69.43c0,3.289-2.664,5.959-5.953,5.959c-3.294,0-5.96-2.67-5.96-5.959
		c0-3.291,2.666-5.958,5.96-5.958C563.412,63.472,566.076,66.139,566.076,69.43z"/>
	<path d="M560.123,76.467c-3.882,0-7.038-3.157-7.038-7.038c0-3.879,3.156-7.036,7.038-7.036c3.876,0,7.031,3.157,7.031,7.036
		C567.154,73.311,563.999,76.467,560.123,76.467z M560.123,64.55c-2.691,0-4.882,2.189-4.882,4.879c0,2.691,2.19,4.881,4.882,4.881
		c2.687,0,4.875-2.19,4.875-4.881C564.998,66.739,562.81,64.55,560.123,64.55z"/>
</g>
<g>
	<circle fill="#8CD1FF" cx="327.917" cy="124.416" r="26.192"/>
	<path d="M327.917,151.686c-15.038,0-27.27-12.233-27.27-27.27c0-15.036,12.232-27.269,27.27-27.269s27.27,12.233,27.27,27.269
		C355.186,139.453,342.954,151.686,327.917,151.686z M327.917,99.304c-13.848,0-25.114,11.266-25.114,25.112
		c0,13.848,11.266,25.114,25.114,25.114c13.848,0,25.114-11.266,25.114-25.114C353.03,110.569,341.764,99.304,327.917,99.304z"/>
</g>
<g>
	<path d="M573.185,111.65h-204.7c-0.596,0-1.078-0.482-1.078-1.078v-10.109c0-0.596,0.482-1.078,1.078-1.078h204.7
		c0.597,0,1.078,0.482,1.078,1.078v10.109C574.263,111.168,573.781,111.65,573.185,111.65z M369.563,109.494h202.543v-7.953H369.563
		V109.494z"/>
</g>
<g>
	<path d="M573.185,130.548h-204.7c-0.596,0-1.078-0.482-1.078-1.078v-10.107c0-0.596,0.482-1.078,1.078-1.078h204.7
		c0.597,0,1.078,0.482,1.078,1.078v10.107C574.263,130.066,573.781,130.548,573.185,130.548z M369.563,128.392h202.543v-7.951
		H369.563V128.392z"/>
</g>
<g>
	<path d="M573.185,149.448h-204.7c-0.596,0-1.078-0.482-1.078-1.078v-10.108c0-0.596,0.482-1.078,1.078-1.078h204.7
		c0.597,0,1.078,0.482,1.078,1.078v10.108C574.263,148.965,573.781,149.448,573.185,149.448z M369.563,147.292h202.543v-7.952
		H369.563V147.292z"/>
</g>
<g>
	<path d="M612.305,282.006H211.032c-0.596,0-1.078-0.482-1.078-1.078v-76.709c0-0.596,0.482-1.078,1.078-1.078h401.272
		c0.596,0,1.078,0.482,1.078,1.078v76.709C613.383,281.524,612.9,282.006,612.305,282.006z M212.11,279.85h399.116v-74.552H212.11
		V279.85z"/>
</g>
<path d="M612.305,606.57H211.032c-0.596,0-1.078-0.482-1.078-1.078V280.928c0-0.596,0.482-1.078,1.078-1.078h401.272
	c0.596,0,1.078,0.482,1.078,1.078v324.564C613.383,606.088,612.9,606.57,612.305,606.57z"/>
<rect x="212.11" y="282.006" fill="#FFFFFF" width="399.116" height="322.408"/>
<g>
	<rect x="224.526" y="219.229" fill="#FF9E99" width="374.286" height="46.691"/>
	<path d="M598.812,266.998H224.526c-0.596,0-1.078-0.482-1.078-1.078v-46.691c0-0.596,0.482-1.078,1.078-1.078h374.286
		c0.596,0,1.078,0.482,1.078,1.078v46.691C599.891,266.515,599.408,266.998,598.812,266.998z M225.604,264.841h372.13v-44.535
		h-372.13V264.841z"/>
</g>
<path fill="#8CD1FF" d="M524.532,444.079l16.994-7.595c-0.661-8.807-2.251-17.55-4.722-26.087l-18.568-1.159l-6.09-15.942
	l-9.946-13.883l9.291-16.151c-2.836-3.332-5.869-6.555-9.101-9.651c-3.235-3.093-6.585-5.98-10.045-8.665l-15.72,9.984
	l-14.303-9.325l-16.202-5.38l-1.973-18.501c-8.642-2.093-17.442-3.298-26.27-3.574l-6.846,17.303l-17.046,0.863l-16.271,5.171
	l-12.473-13.818c-8.109,3.323-15.943,7.495-23.357,12.544l4.646,18.032l-13.29,10.723l-10.127,13.743l-18.219-3.84
	c-4.723,7.622-8.547,15.634-11.502,23.872l14.347,11.864l-4.447,16.478l-0.122,17.075l-16.979,7.588
	c0.661,8.811,2.251,17.553,4.721,26.094l18.562,1.163l6.098,15.939l9.944,13.888l-9.295,16.139c2.84,3.336,5.871,6.562,9.107,9.657
	c3.228,3.092,6.591,5.979,10.049,8.667l15.713-9.985l14.296,9.322l16.211,5.381l1.964,18.506c8.636,2.089,17.44,3.293,26.272,3.571
	l6.844-17.302l17.051-0.859l16.268-5.176l12.478,13.822c8.109-3.322,15.94-7.496,23.352-12.546l-4.64-18.034l13.284-10.719
	l10.129-13.751l18.223,3.848c4.718-7.629,8.544-15.636,11.504-23.878l-14.353-11.855l4.456-16.48L524.532,444.079z"/>
<path d="M409.834,575.165c-0.011,0-0.024,0-0.033,0c-8.853-0.28-17.765-1.491-26.491-3.602c-0.444-0.107-0.771-0.482-0.819-0.935
	l-1.891-17.815l-15.552-5.161c-0.088-0.029-0.172-0.069-0.25-0.12l-13.715-8.943l-15.126,9.613c-0.383,0.246-0.878,0.224-1.24-0.058
	c-3.555-2.763-6.962-5.703-10.133-8.739c-3.186-3.047-6.275-6.324-9.183-9.737c-0.295-0.348-0.341-0.843-0.114-1.238l8.95-15.536
	l-9.539-13.324c-0.055-0.075-0.099-0.155-0.13-0.242l-5.852-15.292l-17.87-1.118c-0.455-0.029-0.842-0.339-0.969-0.777
	c-2.496-8.631-4.098-17.484-4.761-26.312c-0.034-0.454,0.221-0.88,0.636-1.065l16.345-7.305l0.118-16.381
	c0-0.093,0.013-0.185,0.038-0.274l4.267-15.808l-13.812-11.422c-0.352-0.29-0.482-0.768-0.329-1.195
	c3.026-8.436,6.928-16.537,11.601-24.076c0.238-0.386,0.687-0.582,1.139-0.487l17.539,3.697l9.716-13.184
	c0.055-0.075,0.118-0.142,0.191-0.2l12.749-10.287l-4.473-17.36c-0.114-0.44,0.061-0.903,0.438-1.159
	c7.335-4.995,15.259-9.251,23.556-12.651c0.421-0.172,0.905-0.061,1.208,0.276l12.007,13.302l15.61-4.96
	c0.088-0.028,0.179-0.044,0.271-0.049l16.354-0.828l6.591-16.659c0.166-0.421,0.61-0.728,1.036-0.68
	c8.844,0.276,17.756,1.489,26.491,3.604c0.441,0.107,0.769,0.48,0.816,0.933l1.899,17.812l15.543,5.161
	c0.089,0.03,0.173,0.07,0.251,0.12l13.721,8.945l15.135-9.611c0.383-0.243,0.88-0.22,1.238,0.058
	c3.491,2.709,6.898,5.65,10.129,8.738c3.209,3.074,6.296,6.347,9.177,9.731c0.295,0.348,0.341,0.842,0.114,1.237l-8.946,15.549
	l9.542,13.319c0.055,0.075,0.099,0.157,0.131,0.243l5.843,15.295l17.877,1.116c0.454,0.028,0.842,0.339,0.968,0.775
	c2.496,8.628,4.099,17.478,4.762,26.306c0.033,0.454-0.222,0.88-0.636,1.066l-16.36,7.311l-0.099,16.382
	c0,0.093-0.013,0.186-0.038,0.275l-4.274,15.81l13.817,11.414c0.352,0.29,0.482,0.769,0.329,1.195
	c-3.024,8.419-6.928,16.521-11.604,24.08c-0.237,0.388-0.682,0.579-1.139,0.488l-17.544-3.704l-9.718,13.193
	c-0.055,0.073-0.118,0.141-0.19,0.197l-12.744,10.285l4.466,17.36c0.114,0.441-0.06,0.905-0.438,1.16
	c-7.341,5.001-15.263,9.257-23.549,12.653c-0.424,0.175-0.906,0.061-1.209-0.275l-12.014-13.307l-15.606,4.966
	c-0.088,0.027-0.179,0.044-0.271,0.048l-16.357,0.826l-6.589,16.654C410.675,574.896,410.276,575.165,409.834,575.165z
	 M384.554,569.644c8.099,1.91,16.352,3.03,24.558,3.34l6.563-16.594c0.155-0.393,0.526-0.659,0.947-0.681l16.912-0.853l16.135-5.134
	c0.401-0.124,0.842-0.009,1.126,0.306l11.97,13.258c7.658-3.192,14.995-7.135,21.826-11.727l-4.449-17.297
	c-0.105-0.41,0.038-0.842,0.366-1.107l13.176-10.633l10.047-13.639c0.249-0.339,0.663-0.501,1.091-0.415l17.48,3.689
	c4.289-7.033,7.902-14.534,10.752-22.317l-13.768-11.371c-0.326-0.27-0.466-0.705-0.354-1.114l4.418-16.345l0.103-16.938
	c0.003-0.423,0.253-0.805,0.639-0.978l16.299-7.284c-0.663-8.182-2.148-16.377-4.414-24.384l-17.809-1.112
	c-0.421-0.026-0.79-0.297-0.939-0.692l-6.041-15.812l-9.864-13.77c-0.246-0.343-0.27-0.799-0.059-1.165l8.912-15.49
	c-2.691-3.124-5.559-6.147-8.533-8.995c-2.992-2.861-6.139-5.592-9.362-8.126l-15.079,9.575c-0.354,0.228-0.814,0.227-1.167-0.006
	l-14.185-9.248l-16.069-5.336c-0.402-0.133-0.688-0.488-0.732-0.909l-1.893-17.744c-8.104-1.913-16.357-3.037-24.556-3.343
	l-6.565,16.597c-0.156,0.393-0.527,0.658-0.948,0.68l-16.907,0.856l-16.139,5.128c-0.398,0.127-0.842,0.011-1.127-0.305
	l-11.963-13.254c-7.67,3.195-15.006,7.137-21.833,11.725l4.456,17.296c0.105,0.409-0.038,0.842-0.366,1.108l-13.183,10.635
	l-10.044,13.629c-0.253,0.341-0.67,0.504-1.091,0.416l-17.476-3.683c-4.288,7.015-7.901,14.514-10.75,22.313l13.761,11.381
	c0.327,0.27,0.465,0.703,0.354,1.112l-4.41,16.343l-0.122,16.936c-0.003,0.424-0.253,0.805-0.638,0.978l-16.284,7.277
	c0.664,8.181,2.148,16.38,4.414,24.393l17.802,1.114c0.421,0.027,0.79,0.297,0.939,0.69l6.05,15.809l9.861,13.775
	c0.246,0.344,0.27,0.801,0.059,1.167l-8.916,15.477c2.716,3.15,5.586,6.176,8.539,9c2.94,2.815,6.088,5.547,9.369,8.129
	l15.069-9.577c0.358-0.224,0.815-0.224,1.169,0.006l14.178,9.247l16.078,5.336c0.402,0.133,0.689,0.488,0.733,0.909L384.554,569.644
	z"/>
<g>
	<g>
		<path fill="#FF9E99" d="M612.305,520.29c-4.394-1.354-8.854-2.228-13.312-2.582l-6.755-18.411l-14.113,6.362l-15.478,0.01
			l1.426,19.576c-5.643,3.105-10.837,7.104-15.343,11.919l-18.603-6.2l-3.831,14.998l-9.634,12.116l16.177,11.076
			c-1.116,6.52-1.166,13.099-0.215,19.492l-16.454,10.701l4.649,6.134h45.89c-10.797-11.078-14.019-28.158-6.749-42.796
			c9.208-18.535,31.696-26.095,50.225-16.892c0.735,0.366,1.42,0.785,2.119,1.189V520.29z"/>
		<path d="M566.752,606.56c-0.011,0-0.027,0-0.042,0h-45.89c-0.337,0-0.655-0.158-0.859-0.428l-4.649-6.135
			c-0.182-0.237-0.255-0.541-0.202-0.836c0.051-0.295,0.223-0.556,0.474-0.718l15.878-10.327
			c-0.845-6.134-0.775-12.338,0.204-18.461l-15.61-10.69c-0.248-0.168-0.413-0.432-0.457-0.729
			c-0.044-0.295,0.036-0.596,0.221-0.832l9.491-11.936l3.773-14.774c0.074-0.288,0.266-0.534,0.528-0.678
			c0.262-0.146,0.569-0.171,0.858-0.078l17.95,5.982c4.262-4.451,9.143-8.244,14.529-11.284l-1.377-18.892
			c-0.021-0.299,0.082-0.592,0.286-0.812c0.205-0.219,0.489-0.344,0.79-0.344l15.246-0.01l13.902-6.268
			c0.269-0.12,0.583-0.128,0.859-0.011c0.275,0.116,0.492,0.342,0.596,0.624l6.518,17.767c4.267,0.387,8.585,1.251,12.854,2.566
			c0.453,0.14,0.761,0.557,0.761,1.03v26.692c0,0.386-0.207,0.742-0.539,0.934c-0.333,0.195-0.746,0.195-1.078,0l-0.468-0.272
			c-0.523-0.306-1.043-0.611-1.592-0.887c-5.084-2.525-10.519-3.806-16.156-3.806c-13.93,0-26.43,7.745-32.623,20.214
			c-6.822,13.736-4.247,30.345,6.399,41.402c0.304,0.191,0.504,0.528,0.504,0.913C567.83,606.078,567.348,606.56,566.752,606.56z
			 M521.354,604.403h42.91c-9.998-11.672-12.163-28.318-5.271-42.197c6.562-13.206,19.803-21.41,34.556-21.41
			c5.973,0,11.729,1.356,17.116,4.03c0.189,0.095,0.377,0.194,0.561,0.293V521.09c-4.099-1.206-8.238-1.983-12.319-2.308
			c-0.419-0.032-0.781-0.308-0.927-0.703l-6.355-17.322l-13.058,5.886c-0.139,0.062-0.288,0.095-0.442,0.095l-14.317,0.01
			l1.342,18.42c0.029,0.419-0.188,0.819-0.557,1.023c-5.628,3.098-10.701,7.037-15.075,11.71c-0.288,0.308-0.73,0.415-1.129,0.286
			l-17.503-5.833l-3.544,13.875c-0.038,0.147-0.106,0.285-0.2,0.404l-8.914,11.21l15.221,10.424
			c0.348,0.237,0.524,0.654,0.455,1.069c-1.087,6.349-1.158,12.793-0.213,19.152c0.064,0.417-0.124,0.832-0.477,1.062
			l-15.484,10.069L521.354,604.403z"/>
	</g>
</g>
<g>
	<g>
		<path fill="#FF9E99" d="M296.225,280.927c1.356,4.393,2.228,8.85,2.582,13.31l18.413,6.755l-6.359,14.112l-0.015,15.479
			l-19.577-1.429c-3.104,5.647-7.101,10.84-11.915,15.348l6.2,18.602l-14.999,3.828l-12.115,9.637l-11.077-16.176
			c-6.52,1.115-13.102,1.165-19.491,0.213l-10.704,16.457l-6.134-4.651l0.003-45.89c11.079,10.794,28.156,14.017,42.796,6.747
			c18.533-9.209,26.091-31.697,16.892-50.221c-0.366-0.737-0.788-1.421-1.192-2.119L296.225,280.927z"/>
		<path d="M217.166,378.141c-0.234,0-0.463-0.076-0.651-0.219l-6.134-4.652c-0.27-0.204-0.428-0.522-0.428-0.859l0.002-45.89
			c0-0.434,0.259-0.825,0.659-0.993c0.402-0.171,0.861-0.081,1.171,0.221c6.751,6.578,16.027,10.35,25.451,10.35
			c5.621,0,11.04-1.277,16.114-3.797c17.969-8.927,25.328-30.809,16.406-48.776c-0.274-0.551-0.579-1.071-0.887-1.591l-0.271-0.465
			c-0.194-0.334-0.194-0.746-0.002-1.08c0.194-0.334,0.55-0.54,0.935-0.54l26.693-0.002c0.474,0,0.891,0.309,1.029,0.76
			c1.316,4.26,2.178,8.58,2.567,12.852l17.768,6.52c0.282,0.103,0.507,0.318,0.623,0.594c0.116,0.276,0.112,0.587-0.01,0.861
			l-6.265,13.901l-0.015,15.247c0,0.299-0.124,0.585-0.345,0.789c-0.219,0.204-0.509,0.308-0.811,0.286l-18.893-1.378
			c-3.037,5.387-6.827,10.271-11.281,14.533l5.982,17.95c0.095,0.284,0.067,0.595-0.078,0.858c-0.143,0.262-0.389,0.454-0.678,0.528
			l-14.776,3.771l-11.934,9.493c-0.234,0.186-0.539,0.261-0.832,0.223c-0.297-0.045-0.56-0.21-0.729-0.457L246.86,361.57
			c-6.092,0.971-12.359,1.041-18.462,0.201L218.07,377.65c-0.162,0.252-0.423,0.423-0.718,0.475
			C217.29,378.136,217.227,378.141,217.166,378.141z M212.11,371.875l4.785,3.628l10.072-15.485c0.227-0.354,0.64-0.541,1.061-0.479
			c6.317,0.94,12.839,0.869,19.152-0.209c0.406-0.07,0.831,0.106,1.069,0.453l10.424,15.221l11.207-8.916
			c0.12-0.095,0.257-0.163,0.404-0.201l13.877-3.542l-5.833-17.502c-0.132-0.4-0.021-0.84,0.287-1.128
			c4.673-4.377,8.613-9.45,11.706-15.08c0.204-0.369,0.604-0.592,1.023-0.556l18.424,1.345l0.012-14.32
			c0-0.153,0.032-0.304,0.095-0.442l5.883-13.056l-17.324-6.356c-0.396-0.145-0.672-0.507-0.704-0.927
			c-0.324-4.086-1.101-8.225-2.308-12.317l-24.027,0.002c0.099,0.185,0.198,0.371,0.29,0.561
			c9.451,19.032,1.655,42.209-17.377,51.667c-5.374,2.669-11.119,4.022-17.072,4.022c-0.002,0-0.002,0-0.002,0
			c-9.154,0-18.177-3.361-25.124-9.293L212.11,371.875z"/>
	</g>
</g>
<g>
	<circle fill="#FFFFFF" cx="242.379" cy="242.573" r="8.625"/>
	<path d="M242.379,252.277c-5.351,0-9.704-4.353-9.704-9.704c0-5.35,4.352-9.704,9.704-9.704c5.351,0,9.703,4.353,9.703,9.704
		C252.082,247.924,247.73,252.277,242.379,252.277z M242.379,235.026c-4.161,0-7.547,3.386-7.547,7.547
		c0,4.161,3.386,7.547,7.547,7.547c4.161,0,7.547-3.386,7.547-7.547C249.926,238.412,246.54,235.026,242.379,235.026z"/>
</g>
<g>
	<circle fill="#FFFFFF" cx="269.514" cy="242.573" r="8.625"/>
	<path d="M269.515,252.277c-5.351,0-9.704-4.353-9.704-9.704c0-5.35,4.353-9.704,9.704-9.704c5.351,0,9.703,4.353,9.703,9.704
		C279.218,247.924,274.865,252.277,269.515,252.277z M269.515,235.026c-4.161,0-7.547,3.386-7.547,7.547
		c0,4.161,3.386,7.547,7.547,7.547c4.161,0,7.547-3.386,7.547-7.547C277.061,238.412,273.676,235.026,269.515,235.026z"/>
</g>
<g>
	<circle fill="#FFFFFF" cx="296.65" cy="242.573" r="8.625"/>
	<path d="M296.65,252.277c-5.351,0-9.704-4.353-9.704-9.704c0-5.35,4.353-9.704,9.704-9.704c5.351,0,9.704,4.353,9.704,9.704
		C306.353,247.924,302,252.277,296.65,252.277z M296.65,235.026c-4.161,0-7.547,3.386-7.547,7.547c0,4.161,3.386,7.547,7.547,7.547
		c4.161,0,7.547-3.386,7.547-7.547C304.197,238.412,300.81,235.026,296.65,235.026z"/>
</g>
<g>
	<polygon fill="#FFEA8C" points="211.032,605.481 379.307,605.481 361.786,581.28 332.402,576.433 293.28,514.442 269.515,510.668 
		249.926,491.415 211.032,494.58 	"/>
	<path d="M379.307,606.56H211.032c-0.596,0-1.078-0.482-1.078-1.079V494.58c0-0.562,0.432-1.029,0.99-1.074l38.894-3.165
		c0.318-0.018,0.621,0.085,0.844,0.306l19.342,19.011l23.425,3.72c0.308,0.048,0.577,0.227,0.744,0.49l38.862,61.58l28.906,4.769
		c0.28,0.046,0.533,0.2,0.699,0.432l17.52,24.202c0.238,0.328,0.27,0.762,0.086,1.122
		C380.083,606.333,379.711,606.56,379.307,606.56z M212.11,604.403h165.084l-16.021-22.132l-28.946-4.775
		c-0.305-0.051-0.573-0.227-0.737-0.488l-38.86-61.578l-23.284-3.695c-0.223-0.036-0.428-0.14-0.588-0.297l-19.236-18.908
		l-37.412,3.045V604.403z"/>
</g>
<g>
	<polygon fill="#E6E7E8" points="380.199,435.017 431.539,383.679 386.375,383.679 349.438,420.615 349.438,460.123 
		211.032,598.562 211.032,605.481 303.329,605.481 399.105,509.788 438.609,509.788 475.55,472.853 475.548,427.547 
		424.137,478.957 	"/>
	<path d="M303.329,606.56h-92.297c-0.596,0-1.078-0.482-1.078-1.079v-6.919c0-0.287,0.114-0.56,0.316-0.763l138.09-138.123v-39.062
		c0-0.286,0.113-0.561,0.316-0.763l36.938-36.937c0.202-0.202,0.476-0.316,0.762-0.316h45.164c0.435,0,0.829,0.262,0.995,0.665
		c0.167,0.403,0.074,0.867-0.233,1.175l-50.577,50.576l42.413,42.416l50.648-50.648c0.31-0.31,0.777-0.402,1.175-0.233
		c0.402,0.166,0.666,0.56,0.666,0.996l0.002,45.306c0,0.286-0.114,0.561-0.316,0.763l-36.939,36.936
		c-0.202,0.202-0.476,0.315-0.763,0.315h-39.058l-95.46,95.378C303.89,606.446,303.616,606.56,303.329,606.56z M212.11,604.403
		h90.772l95.46-95.377c0.202-0.202,0.476-0.316,0.762-0.316h39.058l36.309-36.304l-0.002-42.257l-49.57,49.57
		c-0.404,0.404-1.121,0.404-1.525,0l-43.937-43.94c-0.421-0.422-0.421-1.103,0-1.525l49.498-49.497h-42.114l-36.306,36.305v39.061
		c0,0.286-0.114,0.561-0.316,0.763L212.11,599.009V604.403z"/>
</g>
<g>
	<path d="M253.89,606.56c-0.276,0-0.552-0.105-0.763-0.316c-0.421-0.421-0.421-1.103,0-1.524l114.158-114.066
		c0.421-0.422,1.103-0.422,1.524,0c0.421,0.421,0.421,1.103,0,1.524L254.652,606.244C254.441,606.455,254.165,606.56,253.89,606.56z
		"/>
</g>
<g>
	<g>
		<g>
			<path fill="#A7A9AC" d="M54.403,441.229c0,8.872,7.195,16.069,16.063,16.069h87.496c8.874,0,16.072-7.197,16.072-16.069v-13.526
				H54.403V441.229z"/>
			<path d="M157.962,458.377H70.466c-9.451,0-17.141-7.692-17.141-17.148v-13.526c0-0.596,0.482-1.078,1.078-1.078h119.63
				c0.596,0,1.078,0.482,1.078,1.078v13.526C175.112,450.685,167.419,458.377,157.962,458.377z M55.481,428.781v12.448
				c0,8.267,6.722,14.991,14.985,14.991h87.496c8.268,0,14.994-6.725,14.994-14.991v-12.448H55.481z"/>
		</g>
		<g>
			<path fill="#A7A9AC" d="M174.034,352.568c0-8.873-7.198-16.069-16.072-16.069H70.466c-8.868,0-16.063,7.197-16.063,16.069v12.353
				h119.63V352.568z"/>
			<path d="M174.034,365.999H54.403c-0.596,0-1.078-0.482-1.078-1.078v-12.353c0-9.455,7.69-17.147,17.141-17.147h87.496
				c9.458,0,17.15,7.692,17.15,17.147v12.353C175.112,365.517,174.629,365.999,174.034,365.999z M55.481,363.843h117.474v-11.274
				c0-8.266-6.726-14.991-14.994-14.991H70.466c-8.263,0-14.985,6.725-14.985,14.991V363.843z"/>
		</g>
		<g>
			<rect x="54.403" y="364.921" fill="#FFFFFF" width="119.63" height="62.782"/>
			<path d="M174.034,428.781H54.403c-0.596,0-1.078-0.483-1.078-1.078v-62.782c0-0.596,0.482-1.078,1.078-1.078h119.63
				c0.596,0,1.078,0.482,1.078,1.078v62.782C175.112,428.299,174.629,428.781,174.034,428.781z M55.481,426.625h117.474v-60.626
				H55.481V426.625z"/>
		</g>
	</g>
	<g>
		<path d="M155.94,337.577H72.488c-0.596,0-1.078-0.482-1.078-1.078v-25.153c0-21.301,17.333-38.632,38.637-38.632h8.343
			c21.3,0,38.629,17.331,38.629,38.632v25.153C157.019,337.095,156.537,337.577,155.94,337.577z M73.566,335.421h81.296v-24.075
			c0-20.113-16.362-36.476-36.472-36.476h-8.343c-20.115,0-36.481,16.363-36.481,36.476V335.421z"/>
	</g>
	<g>
		<path fill="#A7A9AC" d="M128.498,390.31c0-7.888-6.397-14.28-14.282-14.28s-14.279,6.392-14.279,14.28
			c0,5.63,3.27,10.489,8.008,12.812v14.418h12.534v-14.418C125.226,400.8,128.498,395.94,128.498,390.31z"/>
		<path d="M120.479,418.619h-12.534c-0.596,0-1.078-0.482-1.078-1.078v-13.762c-4.957-2.699-8.008-7.8-8.008-13.469
			c0-8.468,6.89-15.358,15.357-15.358c8.47,0,15.36,6.89,15.36,15.358c0,5.67-3.056,10.771-8.019,13.469v13.762
			C121.557,418.137,121.075,418.619,120.479,418.619z M109.023,416.463h10.377v-13.34c0-0.411,0.233-0.787,0.604-0.969
			c4.574-2.238,7.414-6.777,7.414-11.844c0-7.28-5.923-13.202-13.203-13.202c-7.28,0-13.201,5.922-13.201,13.202
			c0,5.066,2.837,9.605,7.404,11.846c0.371,0.181,0.604,0.556,0.604,0.967V416.463z"/>
	</g>
</g>
<g>
	<g>
		<path d="M240.673,106.695h-31.736c-0.596,0-1.078-0.482-1.078-1.078c0-10.929-2.194-21.571-6.521-31.629
			c-0.144-0.334-0.11-0.716,0.088-1.02c0.2-0.303,0.539-0.485,0.901-0.485h30.129c0.394,0,0.756,0.214,0.946,0.558
			c5.462,9.931,8.349,21.196,8.349,32.576C241.751,106.212,241.27,106.695,240.673,106.695z M210.009,104.539h29.578
			c-0.173-10.438-2.849-20.738-7.771-29.899h-27.868C207.84,84.19,209.876,94.235,210.009,104.539z"/>
	</g>
	<g>
		<path d="M232.456,74.639h-30.129c-0.432,0-0.821-0.257-0.992-0.653c-0.88-2.055-1.708-3.821-2.529-5.397
			c-5.941-11.406-14.669-21.354-25.24-28.768c-0.385-0.27-0.552-0.759-0.408-1.209c0.141-0.447,0.558-0.752,1.027-0.752h0.002
			c17.613,0.05,34.287,6.834,46.949,19.105c4.865,4.713,8.99,10.122,12.267,16.077c0.183,0.334,0.177,0.74-0.017,1.068
			C233.191,74.438,232.838,74.639,232.456,74.639z M203.035,72.483h27.569c-3.013-5.138-6.696-9.831-10.967-13.97
			c-11.435-11.08-26.249-17.54-42.025-18.398c9.594,7.354,17.541,16.793,23.107,27.479
			C201.476,69.047,202.236,70.653,203.035,72.483z"/>
	</g>
	<g>
		<path d="M145.66,74.639h-30.13c-0.381,0-0.735-0.201-0.929-0.529c-0.194-0.328-0.2-0.734-0.017-1.068
			c3.272-5.949,7.399-11.357,12.271-16.077c12.664-12.271,29.338-19.055,46.949-19.105h0.002c0.47,0,0.886,0.305,1.027,0.752
			c0.144,0.45-0.023,0.939-0.408,1.21c-10.578,7.415-19.304,17.362-25.236,28.766c-0.802,1.537-1.586,3.202-2.54,5.401
			C146.479,74.385,146.09,74.639,145.66,74.639z M117.383,72.483h27.571c0.851-1.936,1.577-3.465,2.323-4.892
			c5.557-10.683,13.503-20.122,23.101-27.477c-15.774,0.858-30.587,7.319-42.023,18.398
			C124.08,62.656,120.395,67.349,117.383,72.483z"/>
	</g>
	<g>
		<path d="M139.052,106.695h-31.741c-0.596,0-1.078-0.482-1.078-1.078c0-11.377,2.889-22.642,8.352-32.576
			c0.189-0.344,0.552-0.558,0.945-0.558h30.13c0.362,0,0.701,0.182,0.901,0.485c0.198,0.302,0.232,0.686,0.088,1.018
			c-4.326,10.066-6.52,20.708-6.52,31.63C140.13,106.212,139.648,106.695,139.052,106.695z M108.398,104.539h29.582
			c0.133-10.298,2.169-20.342,6.061-29.899h-27.87C111.247,83.803,108.571,94.103,108.398,104.539z"/>
	</g>
	<g>
		<path d="M174.185,40.017c-0.008,0-0.114-0.003-0.124-0.003l-0.11-0.732l-0.092,0.139l-0.053,0.596
			c-0.47,0-0.887-0.306-1.028-0.754c-0.141-0.449,0.023-0.938,0.409-1.208c0.379-0.278,1.061-0.399,1.447-0.121
			c0.392,0.266,0.642,0.812,0.503,1.265C174.998,39.651,174.659,40.017,174.185,40.017z"/>
	</g>
	<g>
		<path d="M173.996,74.639H145.66c-0.362,0-0.701-0.183-0.901-0.486c-0.2-0.304-0.231-0.688-0.088-1.02
			c0.975-2.25,1.779-3.959,2.607-5.541c6.09-11.708,15.05-21.922,25.91-29.536c0.669-0.467,1.887,0.062,1.887,0.88v34.625
			C175.074,74.157,174.592,74.639,173.996,74.639z M147.313,72.483h25.604V40.904c-9.899,7.289-18.081,16.827-23.728,27.684
			C148.581,69.754,147.983,70.993,147.313,72.483z"/>
	</g>
	<g>
		<path d="M173.996,106.695h-34.943c-0.596,0-1.079-0.482-1.079-1.078c0-11.217,2.253-22.146,6.697-32.481
			c0.169-0.396,0.558-0.653,0.99-0.653h28.335c0.596,0,1.078,0.482,1.078,1.078v32.056
			C175.074,106.212,174.592,106.695,173.996,106.695z M140.137,104.539h32.781V74.639h-26.544
			C142.371,84.18,140.273,94.229,140.137,104.539z"/>
	</g>
	<g>
		<path d="M202.327,74.639h-28.332c-0.596,0-1.078-0.482-1.078-1.078V38.936c0-0.596,0.482-1.078,1.078-1.078
			c0.221,0,0.627,0.072,0.809,0.199c10.854,7.611,19.815,17.824,25.914,29.537c0.846,1.624,1.697,3.438,2.601,5.542
			c0.141,0.334,0.107,0.716-0.091,1.02C203.028,74.457,202.689,74.639,202.327,74.639z M175.074,72.483h25.604
			c-0.643-1.432-1.259-2.715-1.872-3.894c-5.656-10.859-13.837-20.396-23.732-27.684V72.483z"/>
	</g>
	<g>
		<path d="M208.937,106.695h-34.941c-0.596,0-1.078-0.482-1.078-1.078V73.561c0-0.596,0.482-1.078,1.078-1.078h28.332
			c0.432,0,0.819,0.256,0.99,0.652c4.445,10.33,6.698,21.258,6.698,32.482C210.015,106.212,209.533,106.695,208.937,106.695z
			 M175.074,104.539h32.779c-0.137-10.315-2.234-20.365-6.239-29.899h-26.54V104.539z"/>
	</g>
	<g>
		<path d="M232.456,138.751h-30.132c-0.362,0-0.701-0.182-0.901-0.485c-0.198-0.303-0.232-0.686-0.089-1.02
			c4.33-10.058,6.524-20.7,6.524-31.629c0-0.596,0.482-1.078,1.078-1.078h31.736c0.596,0,1.078,0.482,1.078,1.078
			c0,11.382-2.887,22.647-8.349,32.576C233.213,138.537,232.851,138.751,232.456,138.751z M203.946,136.594h27.87
			c4.921-9.159,7.598-19.459,7.771-29.899h-29.578C209.876,116.998,207.838,127.043,203.946,136.594z"/>
	</g>
	<g>
		<path d="M174.177,173.373c-0.47,0-0.887-0.304-1.028-0.753c-0.143-0.449,0.023-0.939,0.409-1.209
			c10.569-7.404,19.297-17.351,25.24-28.765c0.827-1.583,1.634-3.299,2.537-5.399c0.168-0.395,0.558-0.653,0.99-0.653h30.132
			c0.381,0,0.735,0.201,0.929,0.53c0.194,0.328,0.2,0.734,0.017,1.068c-3.279,5.96-7.406,11.368-12.267,16.073
			c-12.662,12.275-29.34,19.061-46.957,19.108H174.177z M203.032,138.751c-0.812,1.861-1.558,3.43-2.322,4.893
			c-5.566,10.691-13.513,20.129-23.105,27.475c15.781-0.857,30.595-7.319,42.032-18.403c4.269-4.132,7.951-8.823,10.967-13.965
			H203.032z"/>
	</g>
	<g>
		<path d="M173.806,173.373h-0.002c-17.622-0.047-34.295-6.834-46.949-19.109c-4.867-4.71-8.996-10.118-12.271-16.072
			c-0.184-0.334-0.177-0.74,0.017-1.068c0.194-0.329,0.548-0.53,0.929-0.53h30.13c0.43,0,0.819,0.255,0.99,0.65
			c0.937,2.167,1.746,3.882,2.54,5.4c5.936,11.41,14.661,21.358,25.236,28.767c0.385,0.27,0.552,0.76,0.408,1.209
			C174.692,173.068,174.276,173.373,173.806,173.373z M117.383,138.751c3.014,5.137,6.699,9.829,10.971,13.964
			c11.428,11.085,26.24,17.546,42.023,18.404c-9.596-7.351-17.542-16.789-23.101-27.477c-0.737-1.409-1.482-2.977-2.323-4.892
			H117.383z"/>
	</g>
	<g>
		<path d="M145.66,138.751h-30.13c-0.394,0-0.756-0.214-0.945-0.558c-5.462-9.932-8.352-21.196-8.352-32.576
			c0-0.596,0.482-1.078,1.078-1.078h31.741c0.596,0,1.078,0.482,1.078,1.078c0,10.92,2.194,21.562,6.52,31.63
			c0.143,0.333,0.109,0.716-0.088,1.019C146.361,138.568,146.022,138.751,145.66,138.751z M116.17,136.594h27.87
			c-3.891-9.559-5.928-19.603-6.061-29.899h-29.582C108.571,117.131,111.247,127.433,116.17,136.594z"/>
	</g>
	<g>
		<path d="M173.899,173.452c-0.192,0-0.373-0.04-0.512-0.136c-0.004-0.002-0.088-0.062-0.093-0.065
			c-0.385-0.271-0.605-0.796-0.461-1.245c0.141-0.447,0.503-0.79,0.973-0.79l0.179,0.81l0.025-0.039l0.038-0.768
			c0.493-0.029,0.952,0.279,1.104,0.73c0.154,0.451,0.038,0.946-0.348,1.222C174.573,173.337,174.221,173.452,173.899,173.452z"/>
	</g>
	<g>
		<path d="M173.996,173.377c-0.013,0-0.118-0.002-0.13-0.003c-0.208-0.006-0.508-0.076-0.678-0.196
			c-10.855-7.608-19.815-17.822-25.91-29.536c-0.819-1.564-1.647-3.326-2.607-5.542c-0.143-0.333-0.112-0.717,0.088-1.02
			c0.2-0.303,0.539-0.487,0.901-0.487h28.335c0.596,0,1.078,0.482,1.078,1.078v34.627
			C175.074,172.895,174.592,173.377,173.996,173.377z M147.313,138.751c0.667,1.483,1.274,2.746,1.876,3.893
			c5.652,10.864,13.831,20.401,23.728,27.685v-31.578H147.313z"/>
	</g>
	<g>
		<path d="M173.996,138.751H145.66c-0.432,0-0.821-0.257-0.99-0.653c-4.443-10.338-6.697-21.267-6.697-32.481
			c0-0.596,0.482-1.078,1.079-1.078h34.943c0.596,0,1.078,0.482,1.078,1.078v32.055
			C175.074,138.268,174.592,138.751,173.996,138.751z M146.374,136.594h26.544v-29.899h-32.781
			C140.273,117.002,142.369,127.052,146.374,136.594z"/>
	</g>
	<g>
		<path d="M174.177,173.373c-0.596,0-1.259-0.478-1.259-1.074v-34.627c0-0.596,0.482-1.078,1.078-1.078h28.329
			c0.362,0,0.701,0.182,0.901,0.485c0.198,0.302,0.232,0.686,0.088,1.019c-0.924,2.152-1.752,3.915-2.604,5.546
			c-6.101,11.719-15.063,21.932-25.914,29.534C174.615,173.304,174.398,173.373,174.177,173.373z M175.074,138.751v31.573
			c9.889-7.279,18.068-16.814,23.724-27.678c0.621-1.188,1.229-2.451,1.878-3.895H175.074z"/>
	</g>
	<g>
		<path d="M202.325,138.751h-28.329c-0.596,0-1.078-0.482-1.078-1.079v-32.055c0-0.596,0.482-1.078,1.078-1.078h34.941
			c0.596,0,1.078,0.482,1.078,1.078c0,11.224-2.253,22.152-6.701,32.482C203.144,138.495,202.756,138.751,202.325,138.751z
			 M175.074,136.594h26.537c4.007-9.534,6.105-19.583,6.242-29.899h-32.779V136.594z"/>
	</g>
</g>
<g>
	<g>
		<g>
			<g>
				<rect x="54.972" y="61.188" fill="#FFFFFF" width="119.022" height="25.25"/>
				<path d="M173.994,87.515H54.972c-0.596,0-1.078-0.482-1.078-1.078V61.188c0-0.596,0.482-1.078,1.078-1.078h119.022
					c0.596,0,1.078,0.482,1.078,1.078v25.249C175.072,87.033,174.589,87.515,173.994,87.515z M56.05,85.359h116.866V62.266H56.05
					V85.359z"/>
			</g>
			<g>
				<rect x="54.972" y="217.659" fill="#FFFFFF" width="119.022" height="29.831"/>
				<path d="M173.994,248.567H54.972c-0.596,0-1.078-0.482-1.078-1.078v-29.831c0-0.596,0.482-1.078,1.078-1.078h119.022
					c0.596,0,1.078,0.482,1.078,1.078v29.831C175.072,248.085,174.589,248.567,173.994,248.567z M56.05,246.411h116.866v-27.674
					H56.05V246.411z"/>
			</g>
			<g>
				<rect x="54.972" y="86.437" fill="#E6E7E8" width="119.022" height="131.222"/>
				<path d="M173.994,218.737H54.972c-0.596,0-1.078-0.482-1.078-1.078V86.437c0-0.596,0.482-1.078,1.078-1.078h119.022
					c0.596,0,1.078,0.482,1.078,1.078v131.222C175.072,218.254,174.589,218.737,173.994,218.737z M56.05,216.581h116.866V87.515
					H56.05V216.581z"/>
			</g>
		</g>
		<g>
			<circle fill="#FF9E99" cx="114.482" cy="232.573" r="9.48"/>
			<path d="M114.481,243.131c-5.822,0-10.558-4.737-10.558-10.559c0-5.821,4.736-10.558,10.558-10.558
				c5.823,0,10.559,4.737,10.559,10.558C125.04,238.395,120.304,243.131,114.481,243.131z M114.481,224.171
				c-4.632,0-8.402,3.77-8.402,8.402c0,4.633,3.77,8.402,8.402,8.402c4.633,0,8.402-3.77,8.402-8.402
				C122.884,227.94,119.114,224.171,114.481,224.171z"/>
		</g>
		<g>
			<line fill="#FFFFFF" x1="149.699" y1="78.513" x2="140.299" y2="69.112"/>
			<path d="M149.699,79.591c-0.276,0-0.551-0.105-0.762-0.316l-9.4-9.401c-0.421-0.421-0.421-1.104,0-1.525
				c0.421-0.421,1.104-0.421,1.525,0l9.4,9.401c0.421,0.421,0.421,1.103,0,1.525C150.251,79.486,149.975,79.591,149.699,79.591z"/>
		</g>
		<g>
			<line fill="#FFFFFF" x1="149.701" y1="69.112" x2="140.299" y2="78.512"/>
			<path d="M140.299,79.59c-0.276,0-0.552-0.105-0.763-0.315c-0.421-0.421-0.421-1.104,0-1.525l9.403-9.4
				c0.421-0.421,1.103-0.421,1.524,0c0.421,0.421,0.421,1.104,0,1.525l-9.402,9.4C140.851,79.485,140.575,79.59,140.299,79.59z"/>
		</g>
		<g>
			<line fill="#FFFFFF" x1="103.014" y1="73.813" x2="125.952" y2="73.813"/>
			<path d="M125.952,74.891h-22.938c-0.596,0-1.078-0.482-1.078-1.078c0-0.596,0.482-1.078,1.078-1.078h22.938
				c0.596,0,1.079,0.482,1.079,1.078C127.03,74.409,126.548,74.891,125.952,74.891z"/>
		</g>
	</g>
	<g>
		<line fill="#FFFFFF" x1="151.683" y1="114.846" x2="77.281" y2="189.251"/>
		<path d="M77.281,190.329c-0.276,0-0.552-0.105-0.762-0.316c-0.421-0.421-0.421-1.104,0-1.524l74.402-74.404
			c0.421-0.421,1.104-0.421,1.524,0c0.421,0.421,0.421,1.104,0,1.525l-74.402,74.404C77.832,190.223,77.557,190.329,77.281,190.329z
			"/>
	</g>
	<g>
		<line fill="#FFFFFF" x1="149.518" y1="152.234" x2="116.996" y2="184.758"/>
		<path d="M116.996,185.836c-0.276,0-0.552-0.105-0.762-0.316c-0.421-0.421-0.421-1.104,0-1.524l32.522-32.524
			c0.421-0.421,1.104-0.421,1.525,0c0.421,0.421,0.421,1.104,0,1.525l-32.522,32.524
			C117.548,185.73,117.272,185.836,116.996,185.836z"/>
	</g>
</g>
<g>
	<g>
		<circle fill="#8CD1FF" cx="151.683" cy="462.824" r="45.283"/>
		<path d="M151.683,509.185c-25.564,0-46.361-20.799-46.361-46.361c0-25.563,20.797-46.361,46.361-46.361
			c25.564,0,46.361,20.798,46.361,46.361C198.044,488.387,177.247,509.185,151.683,509.185z M151.683,418.619
			c-24.375,0-44.205,19.83-44.205,44.205s19.831,44.205,44.205,44.205s44.205-19.83,44.205-44.205S176.057,418.619,151.683,418.619z
			"/>
	</g>
	<g>
		<path d="M146.239,487.865c-0.276,0-0.552-0.105-0.762-0.316l-22.04-22.039c-0.421-0.421-0.421-1.103,0-1.524
			c0.421-0.422,1.104-0.422,1.525,0l21.277,21.276l34.998-34.996c0.421-0.421,1.104-0.421,1.525,0c0.421,0.421,0.421,1.104,0,1.524
			l-35.761,35.759C146.791,487.76,146.515,487.865,146.239,487.865z"/>
	</g>
</g>
<g>
	<g>
		<polygon fill="#A7A9AC" points="732.579,302.915 689.031,302.915 603.174,302.915 603.174,398.98 568.55,426.929 603.174,426.929 
			617.071,426.929 762.536,426.929 762.536,302.915 		"/>
		<path d="M762.536,428.007H568.55c-0.457,0-0.863-0.289-1.017-0.72c-0.152-0.431-0.015-0.91,0.339-1.198l34.224-27.624v-95.55
			c0-0.596,0.481-1.078,1.078-1.078h159.362c0.596,0,1.078,0.482,1.078,1.078v124.014
			C763.614,427.524,763.132,428.007,762.536,428.007z M571.602,425.851h189.856V303.993H604.252v94.987
			c0,0.326-0.148,0.634-0.4,0.839L571.602,425.851z"/>
	</g>
	<g>
		<g>
			<polygon fill="#FFFFFF" points="669.857,385.68 706.998,348.541 744.765,386.311 744.765,320.5 620.192,320.5 620.192,392.985 
				648.676,364.5 			"/>
			<path d="M620.192,394.063c-0.139,0-0.28-0.026-0.413-0.082c-0.401-0.166-0.665-0.56-0.665-0.996V320.5
				c0-0.596,0.482-1.078,1.078-1.078h124.572c0.597,0,1.078,0.482,1.078,1.078v65.812c0,0.436-0.263,0.83-0.665,0.996
				c-0.398,0.17-0.865,0.076-1.175-0.233l-37.005-37.008l-36.378,36.377c-0.421,0.421-1.103,0.421-1.524,0l-20.42-20.418
				l-27.721,27.723C620.748,393.954,620.473,394.063,620.192,394.063z M621.271,321.578v68.805l26.643-26.645
				c0.421-0.421,1.104-0.421,1.524,0l20.42,20.418l36.378-36.376c0.404-0.404,1.12-0.404,1.524,0l35.927,35.93v-62.131H621.271z"/>
		</g>
		<g>
			<polygon fill="#E6E7E8" points="706.998,348.541 669.857,385.68 648.676,364.5 620.192,392.985 620.192,409.089 744.765,409.089 
				744.765,386.311 			"/>
			<path d="M744.765,410.167H620.192c-0.596,0-1.078-0.482-1.078-1.078v-16.104c0-0.286,0.114-0.56,0.316-0.762l28.482-28.485
				c0.421-0.421,1.104-0.421,1.524,0l20.42,20.418l36.378-36.376c0.404-0.404,1.12-0.404,1.524,0l37.768,37.77
				c0.202,0.202,0.315,0.476,0.315,0.762v22.777C745.843,409.685,745.361,410.167,744.765,410.167z M621.271,408.011h122.416
				v-21.252l-36.688-36.692l-36.378,36.377c-0.421,0.421-1.103,0.421-1.524,0l-20.42-20.418l-27.405,27.407V408.011z"/>
		</g>
	</g>
	<g>
		<circle fill="#FFF48C" cx="668.356" cy="343.32" r="10.921"/>
		<path d="M668.358,355.317c-6.616,0-12.001-5.382-12.001-11.998c0-6.616,5.385-12,12.001-12c6.614,0,11.997,5.384,11.997,12
			C680.355,349.935,674.973,355.317,668.358,355.317z M668.358,333.477c-5.429,0-9.845,4.415-9.845,9.843
			c0,5.427,4.416,9.841,9.845,9.841c5.427,0,9.841-4.414,9.841-9.841C678.199,337.892,673.785,333.477,668.358,333.477z"/>
	</g>
</g>
<g>
	<g>
		<polygon fill="#FFFFFF" points="128.323,582.788 54.972,631.398 54.972,534.165 		"/>
		<path d="M54.972,632.477c-0.175,0-0.35-0.043-0.509-0.129c-0.35-0.188-0.569-0.552-0.569-0.95v-97.233
			c0-0.398,0.219-0.763,0.569-0.95c0.35-0.189,0.773-0.164,1.106,0.051l73.351,48.623c0.301,0.2,0.482,0.537,0.482,0.899
			s-0.181,0.698-0.482,0.898l-73.351,48.61C55.387,632.415,55.18,632.477,54.972,632.477z M56.05,536.174v93.215l70.321-46.601
			L56.05,536.174z"/>
	</g>
	<g>
		<polygon fill="#E6E7E8" points="232.945,534.165 159.598,582.788 143.963,593.144 128.323,582.788 54.972,534.165 		"/>
		<path d="M143.963,594.223c-0.208,0-0.415-0.06-0.596-0.18l-88.991-58.979c-0.396-0.264-0.573-0.754-0.436-1.211
			c0.137-0.455,0.556-0.767,1.032-0.767h177.974c0.476,0,0.895,0.311,1.032,0.767c0.137,0.457-0.04,0.947-0.436,1.211
			l-88.982,58.979C144.377,594.163,144.171,594.223,143.963,594.223z M58.55,535.243l85.413,56.608l85.405-56.608H58.55z"/>
	</g>
	<g>
		<polygon fill="#E6E7E8" points="128.323,582.788 143.963,593.144 159.598,582.788 232.945,631.398 232.945,631.398 
			190.998,631.398 54.972,631.398 		"/>
		<path d="M232.987,632.477c-0.01,0-0.025,0-0.042,0H54.972c-0.476,0-0.895-0.312-1.032-0.767c-0.137-0.457,0.04-0.948,0.436-1.211
			l73.351-48.61c0.36-0.238,0.828-0.242,1.192,0l15.044,9.963l15.04-9.963c0.362-0.24,0.83-0.24,1.192,0l73.187,48.505
			c0.402,0.158,0.684,0.548,0.684,1.004C234.065,631.994,233.583,632.477,232.987,632.477z M58.55,630.319h170.818l-69.77-46.238
			l-15.04,9.962c-0.362,0.24-0.83,0.24-1.192,0l-15.044-9.962L58.55,630.319z"/>
	</g>
	<g>
		<polygon fill="#FFFFFF" points="261.085,582.788 232.945,566.537 232.945,534.165 159.598,582.788 232.945,631.398 
			232.945,599.032 		"/>
		<path d="M232.945,632.477c-0.208,0-0.415-0.062-0.596-0.18l-73.347-48.61c-0.301-0.2-0.482-0.536-0.482-0.898
			s0.181-0.699,0.482-0.899l73.347-48.623c0.333-0.215,0.754-0.24,1.106-0.051c0.349,0.188,0.568,0.552,0.568,0.95v31.749
			l27.601,15.94c0.333,0.192,0.539,0.548,0.539,0.934c0,0.385-0.206,0.741-0.539,0.933l-27.601,15.935v31.742
			c0,0.398-0.219,0.763-0.568,0.95C233.295,632.434,233.12,632.477,232.945,632.477z M161.55,582.788l70.317,46.601v-30.356
			c0-0.386,0.206-0.741,0.539-0.934l26.522-15.31l-26.522-15.318c-0.333-0.191-0.539-0.547-0.539-0.933v-30.363L161.55,582.788z"/>
	</g>
</g>
<g>
	<path d="M343.289,125.495h-30.743c-0.596,0-1.078-0.482-1.078-1.078c0-0.596,0.482-1.078,1.078-1.078h30.743
		c0.596,0,1.078,0.482,1.078,1.078C344.367,125.013,343.885,125.495,343.289,125.495z"/>
</g>
<g>
	<path d="M327.917,140.868c-0.596,0-1.078-0.482-1.078-1.078v-30.744c0-0.596,0.482-1.078,1.078-1.078
		c0.596,0,1.078,0.482,1.078,1.078v30.744C328.995,140.385,328.513,140.868,327.917,140.868z"/>
</g>
<g>
	<path d="M603.174,318.575h-87.121c-0.596,0-1.078-0.482-1.078-1.078c0-0.596,0.482-1.078,1.078-1.078h87.121
		c0.596,0,1.078,0.482,1.078,1.078C604.252,318.092,603.769,318.575,603.174,318.575z"/>
</g>
<g>
	<path d="M603.174,338.699h-54.303c-0.596,0-1.078-0.482-1.078-1.078c0-0.596,0.482-1.078,1.078-1.078h54.303
		c0.596,0,1.078,0.482,1.078,1.078C604.252,338.216,603.769,338.699,603.174,338.699z"/>
</g>
<g>
	<path d="M603.174,358.245h-23.189c-0.596,0-1.078-0.482-1.078-1.078c0-0.596,0.482-1.078,1.078-1.078h23.189
		c0.596,0,1.078,0.482,1.078,1.078C604.252,357.763,603.769,358.245,603.174,358.245z"/>
</g>
<g>
	<path d="M251.004,414.173h-39.972c-0.596,0-1.078-0.483-1.078-1.078c0-0.597,0.482-1.078,1.078-1.078h39.972
		c0.596,0,1.078,0.481,1.078,1.078C252.082,413.69,251.601,414.173,251.004,414.173z"/>
</g>
<g>
	<path d="M264.124,443.58h-53.091c-0.596,0-1.078-0.482-1.078-1.078c0-0.596,0.482-1.078,1.078-1.078h53.091
		c0.596,0,1.078,0.483,1.078,1.078C265.202,443.098,264.72,443.58,264.124,443.58z"/>
</g>
</svg>
