<?xml version="1.0" encoding="UTF-8" standalone="no"?>
<!-- Generator: Adobe Illustrator 17.0.0, SVG Export Plug-In . SVG Version: 6.00 Build 0)  -->

<svg
   xmlns:dc="http://purl.org/dc/elements/1.1/"
   xmlns:cc="http://creativecommons.org/ns#"
   xmlns:rdf="http://www.w3.org/1999/02/22-rdf-syntax-ns#"
   xmlns:svg="http://www.w3.org/2000/svg"
   xmlns="http://www.w3.org/2000/svg"
   xmlns:sodipodi="http://sodipodi.sourceforge.net/DTD/sodipodi-0.dtd"
   xmlns:inkscape="http://www.inkscape.org/namespaces/inkscape"
   version="1.1"
   id="Layer_1"
   x="0px"
   y="0px"
   width="800px"
   height="100px"
   viewBox="-500 100 1100 350"
   enable-background="new 0 0 800 800"
   xml:space="preserve"
   inkscape:version="0.91 r13725"
   sodipodi:docname="log.svg"><metadata
     id="metadata373"><rdf:RDF><cc:Work
         rdf:about=""><dc:format>image/svg+xml</dc:format><dc:type
           rdf:resource="http://purl.org/dc/dcmitype/StillImage" /></cc:Work></rdf:RDF></metadata><defs
     id="defs371" /><sodipodi:namedview
     pagecolor="#ffffff"
     bordercolor="#666666"
     borderopacity="1"
     objecttolerance="10"
     gridtolerance="10"
     guidetolerance="10"
     inkscape:pageopacity="0"
     inkscape:pageshadow="2"
     inkscape:window-width="2048"
     inkscape:window-height="1128"
     id="namedview369"
     showgrid="false"
     inkscape:zoom="2.89"
     inkscape:cx="552.98617"
     inkscape:cy="23.236563"
     inkscape:window-x="0"
     inkscape:window-y="24"
     inkscape:window-maximized="1"
     inkscape:current-layer="Layer_1" /><g
     id="g3"
     transform="matrix(0.69040642,0,0,0.68990265,-19.121285,40.551435)"><rect
       x="285.68701"
       y="57.723"
       width="305.875"
       height="23.414"
       id="rect5"
       style="fill:#ffea8c" /><path
       d="m 591.562,82.215 -305.875,0 c -0.596,0 -1.078,-0.482 -1.078,-1.078 l 0,-23.414 c 0,-0.596 0.482,-1.078 1.078,-1.078 l 305.875,0 c 0.596,0 1.078,0.482 1.078,1.078 l 0,23.414 c 10e-4,0.596 -0.482,1.078 -1.078,1.078 z m -304.797,-2.156 303.719,0 0,-21.258 -303.719,0 0,21.258 z"
       id="path7"
       inkscape:connector-curvature="0" /></g><path
     d="m 389.29692,156.98838 -211.17807,0 c -0.41148,0 -0.74426,-0.33254 -0.74426,-0.74373 l 0,-59.716583 c 0,-0.411186 0.33278,-0.743709 0.74426,-0.743709 l 211.17807,0 c 0.41148,0 0.74425,0.332523 0.74425,0.743709 l 0,59.717283 c 6.9e-4,0.41118 -0.33277,0.74303 -0.74425,0.74303 z"
     id="path9"
     inkscape:connector-curvature="0" /><rect
     x="178.86313"
     y="97.271774"
     width="209.68956"
     height="58.229164"
     id="rect11"
     style="fill:#ffffff" /><g
     id="g13"
     transform="matrix(0.69040642,0,0,0.68990265,-19.121285,40.551435)"><path
       d="m 584.508,70.508 -11.323,0 c -0.596,0 -1.078,-0.482 -1.078,-1.078 0,-0.596 0.482,-1.078 1.078,-1.078 l 11.323,0 c 0.596,0 1.078,0.482 1.078,1.078 0,0.595 -0.482,1.078 -1.078,1.078 z"
       id="path15"
       inkscape:connector-curvature="0" /></g><g
     id="g17"
     transform="matrix(0.69040642,0,0,0.68990265,-19.121285,40.551435)"><path
       d="m 566.076,69.43 c 0,3.289 -2.664,5.959 -5.953,5.959 -3.294,0 -5.96,-2.67 -5.96,-5.959 0,-3.291 2.666,-5.958 5.96,-5.958 3.289,0 5.953,2.667 5.953,5.958 z"
       id="path19"
       inkscape:connector-curvature="0"
       style="fill:#ffffff" /><path
       d="m 560.123,76.467 c -3.882,0 -7.038,-3.157 -7.038,-7.038 0,-3.879 3.156,-7.036 7.038,-7.036 3.876,0 7.031,3.157 7.031,7.036 0,3.882 -3.155,7.038 -7.031,7.038 z m 0,-11.917 c -2.691,0 -4.882,2.189 -4.882,4.879 0,2.691 2.19,4.881 4.882,4.881 2.687,0 4.875,-2.19 4.875,-4.881 0,-2.69 -2.188,-4.879 -4.875,-4.879 z"
       id="path21"
       inkscape:connector-curvature="0" /></g><g
     id="g23"
     transform="matrix(0.69040642,0,0,0.68990265,-19.121285,40.551435)"
     style="fill:#101626;fill-opacity:1"><circle
       cx="327.91699"
       cy="124.416"
       r="26.191999"
       id="circle25"
       style="fill:#101626;fill-opacity:1" /><path
       d="m 327.917,151.686 c -15.038,0 -27.27,-12.233 -27.27,-27.27 0,-15.036 12.232,-27.269 27.27,-27.269 15.038,0 27.27,12.233 27.27,27.269 -0.001,15.037 -12.233,27.27 -27.27,27.27 z m 0,-52.382 c -13.848,0 -25.114,11.266 -25.114,25.112 0,13.848 11.266,25.114 25.114,25.114 13.848,0 25.114,-11.266 25.114,-25.114 -0.001,-13.847 -11.267,-25.112 -25.114,-25.112 z"
       id="path27"
       inkscape:connector-curvature="0"
       style="fill:#101626;fill-opacity:1" /></g><g
     id="g29"
     transform="matrix(0.69040642,0,0,0.68990265,-19.121285,40.551435)"><path
       d="m 573.185,111.65 -204.7,0 c -0.596,0 -1.078,-0.482 -1.078,-1.078 l 0,-10.109 c 0,-0.596 0.482,-1.078 1.078,-1.078 l 204.7,0 c 0.597,0 1.078,0.482 1.078,1.078 l 0,10.109 c 0,0.596 -0.482,1.078 -1.078,1.078 z m -203.622,-2.156 202.543,0 0,-7.953 -202.543,0 0,7.953 z"
       id="path31"
       inkscape:connector-curvature="0" /></g><g
     id="g33"
     transform="matrix(0.69040642,0,0,0.68990265,-19.121285,40.551435)"><path
       d="m 573.185,130.548 -204.7,0 c -0.596,0 -1.078,-0.482 -1.078,-1.078 l 0,-10.107 c 0,-0.596 0.482,-1.078 1.078,-1.078 l 204.7,0 c 0.597,0 1.078,0.482 1.078,1.078 l 0,10.107 c 0,0.596 -0.482,1.078 -1.078,1.078 z m -203.622,-2.156 202.543,0 0,-7.951 -202.543,0 0,7.951 z"
       id="path35"
       inkscape:connector-curvature="0" /></g><g
     id="g37"
     transform="matrix(0.69040642,0,0,0.68990265,-19.121285,40.551435)"><path
       d="m 573.185,149.448 -204.7,0 c -0.596,0 -1.078,-0.482 -1.078,-1.078 l 0,-10.108 c 0,-0.596 0.482,-1.078 1.078,-1.078 l 204.7,0 c 0.597,0 1.078,0.482 1.078,1.078 l 0,10.108 c 0,0.595 -0.482,1.078 -1.078,1.078 z m -203.622,-2.156 202.543,0 0,-7.952 -202.543,0 0,7.952 z"
       id="path39"
       inkscape:connector-curvature="0" /></g><g
     id="g41"
     transform="matrix(0.69040642,0,0,0.68990265,-19.121285,40.551435)"><path
       d="m 612.305,282.006 -401.273,0 c -0.596,0 -1.078,-0.482 -1.078,-1.078 l 0,-76.709 c 0,-0.596 0.482,-1.078 1.078,-1.078 l 401.272,0 c 0.596,0 1.078,0.482 1.078,1.078 l 0,76.709 c 0.001,0.596 -0.482,1.078 -1.077,1.078 z m -400.195,-2.156 399.116,0 0,-74.552 -399.116,0 0,74.552 z"
       id="path43"
       inkscape:connector-curvature="0" /></g><path
     d="m 403.61802,459.02569 -277.04146,0 c -0.41147,0 -0.74425,-0.33254 -0.74425,-0.74372 l 0,-223.91756 c 0,-0.41119 0.33278,-0.74372 0.74425,-0.74372 l 277.04077,0 c 0.41148,0 0.74426,0.33253 0.74426,0.74372 l 0,223.91756 c 6.9e-4,0.41118 -0.33278,0.74372 -0.74357,0.74372 z"
     id="path45"
     inkscape:connector-curvature="0" /><rect
     x="127.32082"
     y="235.10814"
     width="275.55225"
     height="222.43013"
     id="rect47"
     style="fill:#ffffff" /><g
     id="g49"
     transform="matrix(0.69040642,0,0,0.68990265,-19.121285,40.551435)"
     style="fill:#101626;fill-opacity:1"><rect
       x="224.526"
       y="219.229"
       width="374.28601"
       height="46.691002"
       id="rect51"
       style="fill:#101626;fill-opacity:1" /><path
       d="m 598.812,266.998 -374.286,0 c -0.596,0 -1.078,-0.482 -1.078,-1.078 l 0,-46.691 c 0,-0.596 0.482,-1.078 1.078,-1.078 l 374.286,0 c 0.596,0 1.078,0.482 1.078,1.078 l 0,46.691 c 10e-4,0.595 -0.482,1.078 -1.078,1.078 z m -373.208,-2.157 372.13,0 0,-44.535 -372.13,0 0,44.535 z"
       id="path53"
       inkscape:connector-curvature="0"
       style="fill:#101626;fill-opacity:1" /></g><path
     d="m 343.01898,346.92271 11.73276,-5.23981 c -0.45636,-6.07597 -1.55411,-12.10779 -3.2601,-17.99749 l -12.81946,-0.79959 -4.20458,-10.99843 -6.86679,-9.57793 6.41457,-11.14261 c -1.95799,-2.29876 -4.05198,-4.52231 -6.28339,-6.65825 -2.23346,-2.13388 -4.54633,-4.12561 -6.93512,-5.97801 l -10.8532,6.88799 -9.87487,-6.43335 -11.18597,-3.71166 -1.36217,-12.76389 c -5.9665,-1.44397 -12.04208,-2.27531 -18.13697,-2.46571 l -4.72654,11.93737 -11.76866,0.59539 -11.2336,3.5675 -8.61145,-9.53309 c -5.5985,2.29255 -11.00715,5.17083 -16.12582,8.65415 l 3.20763,12.44032 -9.1755,7.39783 -6.99175,9.48133 -12.5785,-2.64923 c -3.26079,5.25844 -5.90092,10.78594 -7.94106,16.46936 l 9.90526,8.185 -3.07025,11.36822 -0.0842,11.78009 -11.72242,5.23498 c 0.45637,6.07873 1.55411,12.10986 3.25942,18.00232 l 12.81531,0.80236 4.2101,10.99635 6.86542,9.58137 -6.41734,11.13434 c 1.96076,2.3015 4.05338,4.52714 6.28753,6.66239 2.22864,2.13317 4.55047,4.12492 6.9379,5.97939 l 10.84836,-6.88868 9.87005,6.43126 11.19217,3.71239 1.35596,12.76733 c 5.96234,1.4412 12.04069,2.27184 18.13835,2.46364 l 4.72515,-11.9367 11.77212,-0.59263 11.23153,-3.57094 8.6149,9.53584 c 5.5985,-2.29186 11.00507,-5.17151 16.12236,-8.65552 l -3.20348,-12.4417 9.17136,-7.39507 6.99313,-9.48684 12.58127,2.65473 c 3.25733,-5.26326 5.89883,-10.78731 7.94244,-16.47349 l -9.9094,-8.17879 3.07644,-11.3696 0.0711,-11.78423 z"
     id="path55"
     inkscape:connector-curvature="0"
     style="fill:#00acab;fill-opacity:1" /><path
     d="m 263.83073,437.35929 c -0.008,0 -0.0165,0 -0.0228,0 -6.11217,-0.19316 -12.26507,-1.02864 -18.28956,-2.48503 -0.30654,-0.0738 -0.53229,-0.33253 -0.56544,-0.64505 l -1.30555,-12.29062 -10.73721,-3.56058 c -0.0608,-0.0201 -0.11874,-0.0476 -0.1726,-0.0828 l -9.46893,-6.1698 -10.44308,6.63204 c -0.26443,0.16971 -0.60618,0.15454 -0.85611,-0.0401 -2.45438,-1.9062 -4.8066,-3.93451 -6.99588,-6.02905 -2.19964,-2.10214 -4.3323,-4.36295 -6.34,-6.71759 -0.20368,-0.24008 -0.23543,-0.58158 -0.0788,-0.85409 l 6.17914,-10.71833 -6.5858,-9.19226 c -0.038,-0.0517 -0.0685,-0.10697 -0.0897,-0.16696 l -4.04025,-10.54998 -12.33757,-0.77132 c -0.31413,-0.02 -0.58133,-0.23388 -0.669,-0.53605 -1.72326,-5.95456 -2.82928,-12.06226 -3.28703,-18.15272 -0.0234,-0.31322 0.15258,-0.60713 0.43909,-0.73476 l 11.2847,-5.03974 0.0815,-11.30129 c 0,-0.0642 0.009,-0.12769 0.0262,-0.18903 l 2.94597,-10.90598 -9.5359,-7.88007 c -0.24301,-0.20007 -0.33277,-0.52984 -0.22713,-0.82443 2.08917,-5.82003 4.78314,-11.40892 8.00941,-16.6101 0.16431,-0.2663 0.4743,-0.40153 0.78636,-0.33598 l 12.10904,2.55058 6.70799,-9.09569 c 0.038,-0.0517 0.0815,-0.0979 0.13188,-0.13798 l 8.80198,-7.09703 -3.08819,-11.97671 c -0.0788,-0.30356 0.0421,-0.62298 0.3024,-0.7996 5.06413,-3.44606 10.53491,-6.38228 16.2632,-8.72795 0.29067,-0.11873 0.62482,-0.0421 0.83402,0.19041 l 8.28972,9.17708 10.77724,-3.4219 c 0.0608,-0.0193 0.12359,-0.0303 0.18709,-0.0339 l 11.29092,-0.57124 4.55047,-11.49309 c 0.11464,-0.29045 0.42114,-0.50225 0.71525,-0.46912 6.10597,0.19041 12.25886,1.02726 18.28956,2.48639 0.30446,0.0738 0.53093,0.33116 0.56337,0.6437 l 1.31109,12.28853 10.73098,3.5606 c 0.0615,0.0207 0.11937,0.0482 0.17329,0.0828 l 9.47307,6.17117 10.4493,-6.63065 c 0.26443,-0.16764 0.60756,-0.15178 0.85473,0.04 2.4102,1.86894 4.76242,3.89794 6.99313,6.02836 2.21551,2.12077 4.34678,4.37882 6.33585,6.71345 0.20367,0.24008 0.23542,0.58089 0.0787,0.85341 l -6.17638,10.72729 6.58786,9.18881 c 0.038,0.0517 0.0685,0.10837 0.0905,0.16765 l 4.03404,10.55206 12.34239,0.76993 c 0.31345,0.0193 0.58133,0.23389 0.66831,0.53468 1.72327,5.95248 2.82999,12.05812 3.28772,18.14858 0.0228,0.31321 -0.15327,0.60711 -0.4391,0.73544 l -11.29505,5.04387 -0.0683,11.302 c 0,0.0641 -0.009,0.12832 -0.0262,0.18971 l -2.9508,10.90736 9.53935,7.87455 c 0.24302,0.20007 0.33278,0.53054 0.22714,0.82443 -2.08779,5.8083 -4.78314,11.39788 -8.01148,16.61286 -0.16362,0.26769 -0.47086,0.39945 -0.78637,0.33667 l -12.11249,-2.55539 -6.70937,9.10188 c -0.038,0.0504 -0.0815,0.0972 -0.13118,0.13592 l -8.79853,7.09564 3.08335,11.9767 c 0.0788,0.30426 -0.0414,0.62436 -0.30239,0.80029 -5.06829,3.45022 -10.53769,6.38644 -16.25839,8.72934 -0.29273,0.12078 -0.62551,0.0421 -0.83469,-0.18971 l -8.29456,-9.18054 -10.77447,3.42606 c -0.0608,0.0186 -0.1236,0.0303 -0.1871,0.0331 l -11.29299,0.56986 -4.54908,11.48964 c -0.11119,0.28562 -0.38662,0.47121 -0.69179,0.47121 z m -17.45347,-3.80896 c 5.59161,1.31773 11.28953,2.09042 16.95502,2.30428 l 4.53112,-11.44825 c 0.10696,-0.27112 0.36315,-0.45464 0.65382,-0.46981 l 11.67615,-0.5885 11.13971,-3.54195 c 0.27685,-0.0856 0.58132,-0.006 0.7774,0.21111 l 8.26416,9.14673 c 5.28713,-2.20218 10.35264,-4.92245 15.06881,-8.09049 l -3.07161,-11.93324 c -0.0724,-0.28287 0.0262,-0.5809 0.25269,-0.76374 l 9.09678,-7.33572 6.93652,-9.40959 c 0.17191,-0.23387 0.45773,-0.34564 0.75323,-0.28631 l 12.06831,2.54506 c 2.96115,-4.85209 5.4556,-10.02705 7.42326,-15.39656 l -9.50553,-7.84489 c -0.22506,-0.18627 -0.32173,-0.48637 -0.24441,-0.76855 l 3.05023,-11.27645 0.0711,-11.68557 c 0.003,-0.29184 0.17467,-0.55538 0.44116,-0.67473 l 11.25294,-5.02525 c -0.45775,-5.64479 -1.48299,-11.29854 -3.04745,-16.82258 l -12.29546,-0.76718 c -0.29066,-0.0179 -0.54542,-0.20489 -0.6483,-0.47741 l -4.17073,-10.90875 -6.81016,-9.49995 c -0.16986,-0.23664 -0.18643,-0.55124 -0.0407,-0.80374 l 6.1529,-10.68659 c -1.85788,-2.15526 -3.83797,-4.24083 -5.89124,-6.20568 -2.06569,-1.97381 -4.23841,-3.85793 -6.46359,-5.60615 l -10.41063,6.60582 c -0.24441,0.1573 -0.56199,0.15661 -0.8057,-0.004 l -9.79342,-6.38022 -11.09414,-3.68133 c -0.27754,-0.0917 -0.475,-0.33667 -0.50538,-0.62711 l -1.30695,-12.24164 c -5.59504,-1.31979 -11.29297,-2.09524 -16.9536,-2.30634 l -4.53252,11.45031 c -0.10773,0.27112 -0.36386,0.45396 -0.65452,0.46914 l -11.67269,0.59055 -11.14247,3.53782 c -0.27478,0.0875 -0.58132,0.008 -0.77809,-0.21042 l -8.25933,-9.14396 c -5.29542,2.20423 -10.36024,4.92383 -15.07366,8.08909 l 3.07647,11.93256 c 0.0724,0.28218 -0.0262,0.58091 -0.25269,0.76442 l -9.10163,7.33712 -6.93444,9.40268 c -0.17467,0.23526 -0.46257,0.3477 -0.75323,0.287 l -12.06555,-2.54092 c -2.96046,4.83967 -5.4549,10.01326 -7.42187,15.3938 l 9.50068,7.85179 c 0.22576,0.18628 0.32105,0.485 0.24441,0.76717 l -3.04469,11.27508 -0.0842,11.68418 c -0.003,0.29253 -0.17467,0.55537 -0.44047,0.67474 l -11.24259,5.02041 c 0.45844,5.64409 1.48299,11.3006 3.04746,16.8288 l 12.29061,0.76855 c 0.29066,0.0186 0.54542,0.2049 0.6483,0.47602 l 4.17695,10.90668 6.80809,9.50341 c 0.16984,0.23733 0.18642,0.55261 0.0407,0.80512 l -6.15566,10.67763 c 1.87514,2.17318 3.85661,4.26083 5.89537,6.20912 2.02979,1.94207 4.20319,3.82689 6.46842,5.60821 l 10.40374,-6.60719 c 0.24717,-0.15455 0.56267,-0.15455 0.80708,0.004 l 9.78858,6.37952 11.10036,3.68133 c 0.27754,0.0917 0.47569,0.33667 0.50607,0.62712 l 1.30073,12.24438 z"
     id="path57"
     inkscape:connector-curvature="0"
     style="fill:#101626;fill-opacity:1" /><g
     id="g59"
     transform="matrix(0.69040642,0,0,0.68990265,-19.121285,40.551435)"><g
       id="g61"><path
         d="m 612.305,520.29 c -4.394,-1.354 -8.854,-2.228 -13.312,-2.582 l -6.755,-18.411 -14.113,6.362 -15.478,0.01 1.426,19.576 c -5.643,3.105 -10.837,7.104 -15.343,11.919 l -18.603,-6.2 -3.831,14.998 -9.634,12.116 16.177,11.076 c -1.116,6.52 -1.166,13.099 -0.215,19.492 l -16.454,10.701 4.649,6.134 45.89,0 c -10.797,-11.078 -14.019,-28.158 -6.749,-42.796 9.208,-18.535 31.696,-26.095 50.225,-16.892 0.735,0.366 1.42,0.785 2.119,1.189 l 0,-26.692 z"
         id="path63"
         inkscape:connector-curvature="0"
         style="fill:#8cd1ff;fill-opacity:1" /><path
         d="m 566.752,606.56 c -0.011,0 -0.027,0 -0.042,0 l -45.89,0 c -0.337,0 -0.655,-0.158 -0.859,-0.428 l -4.649,-6.135 c -0.182,-0.237 -0.255,-0.541 -0.202,-0.836 0.051,-0.295 0.223,-0.556 0.474,-0.718 l 15.878,-10.327 c -0.845,-6.134 -0.775,-12.338 0.204,-18.461 l -15.61,-10.69 c -0.248,-0.168 -0.413,-0.432 -0.457,-0.729 -0.044,-0.295 0.036,-0.596 0.221,-0.832 l 9.491,-11.936 3.773,-14.774 c 0.074,-0.288 0.266,-0.534 0.528,-0.678 0.262,-0.146 0.569,-0.171 0.858,-0.078 l 17.95,5.982 c 4.262,-4.451 9.143,-8.244 14.529,-11.284 l -1.377,-18.892 c -0.021,-0.299 0.082,-0.592 0.286,-0.812 0.205,-0.219 0.489,-0.344 0.79,-0.344 l 15.246,-0.01 13.902,-6.268 c 0.269,-0.12 0.583,-0.128 0.859,-0.011 0.275,0.116 0.492,0.342 0.596,0.624 l 6.518,17.767 c 4.267,0.387 8.585,1.251 12.854,2.566 0.453,0.14 0.761,0.557 0.761,1.03 l 0,26.692 c 0,0.386 -0.207,0.742 -0.539,0.934 -0.333,0.195 -0.746,0.195 -1.078,0 l -0.468,-0.272 c -0.523,-0.306 -1.043,-0.611 -1.592,-0.887 -5.084,-2.525 -10.519,-3.806 -16.156,-3.806 -13.93,0 -26.43,7.745 -32.623,20.214 -6.822,13.736 -4.247,30.345 6.399,41.402 0.304,0.191 0.504,0.528 0.504,0.913 -10e-4,0.602 -0.483,1.084 -1.079,1.084 z m -45.398,-2.157 42.91,0 c -9.998,-11.672 -12.163,-28.318 -5.271,-42.197 6.562,-13.206 19.803,-21.41 34.556,-21.41 5.973,0 11.729,1.356 17.116,4.03 0.189,0.095 0.377,0.194 0.561,0.293 l 0,-24.029 c -4.099,-1.206 -8.238,-1.983 -12.319,-2.308 -0.419,-0.032 -0.781,-0.308 -0.927,-0.703 l -6.355,-17.322 -13.058,5.886 c -0.139,0.062 -0.288,0.095 -0.442,0.095 l -14.317,0.01 1.342,18.42 c 0.029,0.419 -0.188,0.819 -0.557,1.023 -5.628,3.098 -10.701,7.037 -15.075,11.71 -0.288,0.308 -0.73,0.415 -1.129,0.286 l -17.503,-5.833 -3.544,13.875 c -0.038,0.147 -0.106,0.285 -0.2,0.404 l -8.914,11.21 15.221,10.424 c 0.348,0.237 0.524,0.654 0.455,1.069 -1.087,6.349 -1.158,12.793 -0.213,19.152 0.064,0.417 -0.124,0.832 -0.477,1.062 l -15.484,10.069 3.624,4.784 z"
         id="path65"
         inkscape:connector-curvature="0"
         style="fill:#101626;fill-opacity:1" /></g></g><g
     id="g67"
     transform="matrix(0.69040642,0,0,0.68990265,-19.121285,40.551435)"><g
       id="g69"><path
         d="m 296.225,280.927 c 1.356,4.393 2.228,8.85 2.582,13.31 l 18.413,6.755 -6.359,14.112 -0.015,15.479 -19.577,-1.429 c -3.104,5.647 -7.101,10.84 -11.915,15.348 l 6.2,18.602 -14.999,3.828 -12.115,9.637 -11.077,-16.176 c -6.52,1.115 -13.102,1.165 -19.491,0.213 l -10.704,16.457 -6.134,-4.651 0.003,-45.89 c 11.079,10.794 28.156,14.017 42.796,6.747 18.533,-9.209 26.091,-31.697 16.892,-50.221 -0.366,-0.737 -0.788,-1.421 -1.192,-2.119 l 26.692,-0.002 z"
         id="path71"
         inkscape:connector-curvature="0"
         style="fill:#8cd1ff;fill-opacity:1" /><path
         d="m 217.166,378.141 c -0.234,0 -0.463,-0.076 -0.651,-0.219 l -6.134,-4.652 c -0.27,-0.204 -0.428,-0.522 -0.428,-0.859 l 0.002,-45.89 c 0,-0.434 0.259,-0.825 0.659,-0.993 0.402,-0.171 0.861,-0.081 1.171,0.221 6.751,6.578 16.027,10.35 25.451,10.35 5.621,0 11.04,-1.277 16.114,-3.797 17.969,-8.927 25.328,-30.809 16.406,-48.776 -0.274,-0.551 -0.579,-1.071 -0.887,-1.591 l -0.271,-0.465 c -0.194,-0.334 -0.194,-0.746 -0.002,-1.08 0.194,-0.334 0.55,-0.54 0.935,-0.54 l 26.693,-0.002 c 0.474,0 0.891,0.309 1.029,0.76 1.316,4.26 2.178,8.58 2.567,12.852 l 17.768,6.52 c 0.282,0.103 0.507,0.318 0.623,0.594 0.116,0.276 0.112,0.587 -0.01,0.861 l -6.265,13.901 -0.015,15.247 c 0,0.299 -0.124,0.585 -0.345,0.789 -0.219,0.204 -0.509,0.308 -0.811,0.286 l -18.893,-1.378 c -3.037,5.387 -6.827,10.271 -11.281,14.533 l 5.982,17.95 c 0.095,0.284 0.067,0.595 -0.078,0.858 -0.143,0.262 -0.389,0.454 -0.678,0.528 l -14.776,3.771 -11.934,9.493 c -0.234,0.186 -0.539,0.261 -0.832,0.223 -0.297,-0.045 -0.56,-0.21 -0.729,-0.457 L 246.86,361.57 c -6.092,0.971 -12.359,1.041 -18.462,0.201 L 218.07,377.65 c -0.162,0.252 -0.423,0.423 -0.718,0.475 -0.062,0.011 -0.125,0.016 -0.186,0.016 z m -5.056,-6.266 4.785,3.628 10.072,-15.485 c 0.227,-0.354 0.64,-0.541 1.061,-0.479 6.317,0.94 12.839,0.869 19.152,-0.209 0.406,-0.07 0.831,0.106 1.069,0.453 l 10.424,15.221 11.207,-8.916 c 0.12,-0.095 0.257,-0.163 0.404,-0.201 l 13.877,-3.542 -5.833,-17.502 c -0.132,-0.4 -0.021,-0.84 0.287,-1.128 4.673,-4.377 8.613,-9.45 11.706,-15.08 0.204,-0.369 0.604,-0.592 1.023,-0.556 l 18.424,1.345 0.012,-14.32 c 0,-0.153 0.032,-0.304 0.095,-0.442 l 5.883,-13.056 -17.324,-6.356 c -0.396,-0.145 -0.672,-0.507 -0.704,-0.927 -0.324,-4.086 -1.101,-8.225 -2.308,-12.317 l -24.027,0.002 c 0.099,0.185 0.198,0.371 0.29,0.561 9.451,19.032 1.655,42.209 -17.377,51.667 -5.374,2.669 -11.119,4.022 -17.072,4.022 -0.002,0 -0.002,0 -0.002,0 -9.154,0 -18.177,-3.361 -25.124,-9.293 l 0,42.91 z"
         id="path73"
         inkscape:connector-curvature="0" /></g></g><g
     id="g75"
     transform="matrix(0.69040642,0,0,0.68990265,-19.121285,40.551435)"><circle
       cx="242.379"
       cy="242.573"
       r="8.625"
       id="circle77"
       style="fill:#ffffff" /><path
       d="m 242.379,252.277 c -5.351,0 -9.704,-4.353 -9.704,-9.704 0,-5.35 4.352,-9.704 9.704,-9.704 5.351,0 9.703,4.353 9.703,9.704 0,5.351 -4.352,9.704 -9.703,9.704 z m 0,-17.251 c -4.161,0 -7.547,3.386 -7.547,7.547 0,4.161 3.386,7.547 7.547,7.547 4.161,0 7.547,-3.386 7.547,-7.547 0,-4.161 -3.386,-7.547 -7.547,-7.547 z"
       id="path79"
       inkscape:connector-curvature="0" /></g><g
     id="g81"
     transform="matrix(0.69040642,0,0,0.68990265,-19.121285,40.551435)"><circle
       cx="269.51401"
       cy="242.573"
       r="8.625"
       id="circle83"
       style="fill:#ffffff" /><path
       d="m 269.515,252.277 c -5.351,0 -9.704,-4.353 -9.704,-9.704 0,-5.35 4.353,-9.704 9.704,-9.704 5.351,0 9.703,4.353 9.703,9.704 0,5.351 -4.353,9.704 -9.703,9.704 z m 0,-17.251 c -4.161,0 -7.547,3.386 -7.547,7.547 0,4.161 3.386,7.547 7.547,7.547 4.161,0 7.547,-3.386 7.547,-7.547 -0.001,-4.161 -3.386,-7.547 -7.547,-7.547 z"
       id="path85"
       inkscape:connector-curvature="0" /></g><g
     id="g87"
     transform="matrix(0.69040642,0,0,0.68990265,-19.121285,40.551435)"><circle
       cx="296.64999"
       cy="242.573"
       r="8.625"
       id="circle89"
       style="fill:#ffffff" /><path
       d="m 296.65,252.277 c -5.351,0 -9.704,-4.353 -9.704,-9.704 0,-5.35 4.353,-9.704 9.704,-9.704 5.351,0 9.704,4.353 9.704,9.704 -10e-4,5.351 -4.354,9.704 -9.704,9.704 z m 0,-17.251 c -4.161,0 -7.547,3.386 -7.547,7.547 0,4.161 3.386,7.547 7.547,7.547 4.161,0 7.547,-3.386 7.547,-7.547 0,-4.161 -3.387,-7.547 -7.547,-7.547 z"
       id="path91"
       inkscape:connector-curvature="0" /></g><g
     id="g93"
     transform="matrix(0.69040642,0,0,0.68990265,-19.121285,40.551435)"><polygon
       points="269.515,510.668 249.926,491.415 211.032,494.58 211.032,605.481 379.307,605.481 361.786,581.28 332.402,576.433 293.28,514.442 "
       id="polygon95"
       style="fill:#ffea8c" /><path
       d="m 379.307,606.56 -168.275,0 c -0.596,0 -1.078,-0.482 -1.078,-1.079 l 0,-110.901 c 0,-0.562 0.432,-1.029 0.99,-1.074 l 38.894,-3.165 c 0.318,-0.018 0.621,0.085 0.844,0.306 l 19.342,19.011 23.425,3.72 c 0.308,0.048 0.577,0.227 0.744,0.49 l 38.862,61.58 28.906,4.769 c 0.28,0.046 0.533,0.2 0.699,0.432 l 17.52,24.202 c 0.238,0.328 0.27,0.762 0.086,1.122 -0.183,0.36 -0.555,0.587 -0.959,0.587 z m -167.197,-2.157 165.084,0 -16.021,-22.132 -28.946,-4.775 c -0.305,-0.051 -0.573,-0.227 -0.737,-0.488 l -38.86,-61.578 -23.284,-3.695 c -0.223,-0.036 -0.428,-0.14 -0.588,-0.297 l -19.236,-18.908 -37.412,3.045 0,108.828 z"
       id="path97"
       inkscape:connector-curvature="0" /></g><g
     id="g99"
     transform="matrix(0.69040642,0,0,0.68990265,-19.121285,40.551435)"><polygon
       points="211.032,598.562 211.032,605.481 303.329,605.481 399.105,509.788 438.609,509.788 475.55,472.853 475.548,427.547 424.137,478.957 380.199,435.017 431.539,383.679 386.375,383.679 349.438,420.615 349.438,460.123 "
       id="polygon101"
       style="fill:#e6e7e8" /><path
       d="m 303.329,606.56 -92.297,0 c -0.596,0 -1.078,-0.482 -1.078,-1.079 l 0,-6.919 c 0,-0.287 0.114,-0.56 0.316,-0.763 l 138.09,-138.123 0,-39.062 c 0,-0.286 0.113,-0.561 0.316,-0.763 l 36.938,-36.937 c 0.202,-0.202 0.476,-0.316 0.762,-0.316 l 45.164,0 c 0.435,0 0.829,0.262 0.995,0.665 0.167,0.403 0.074,0.867 -0.233,1.175 l -50.577,50.576 42.413,42.416 50.648,-50.648 c 0.31,-0.31 0.777,-0.402 1.175,-0.233 0.402,0.166 0.666,0.56 0.666,0.996 l 0.002,45.306 c 0,0.286 -0.114,0.561 -0.316,0.763 l -36.939,36.936 c -0.202,0.202 -0.476,0.315 -0.763,0.315 l -39.058,0 -95.46,95.378 c -0.203,0.203 -0.477,0.317 -0.764,0.317 z m -91.219,-2.157 90.772,0 95.46,-95.377 c 0.202,-0.202 0.476,-0.316 0.762,-0.316 l 39.058,0 36.309,-36.304 -0.002,-42.257 -49.57,49.57 c -0.404,0.404 -1.121,0.404 -1.525,0 l -43.937,-43.94 c -0.421,-0.422 -0.421,-1.103 0,-1.525 l 49.498,-49.497 -42.114,0 -36.306,36.305 0,39.061 c 0,0.286 -0.114,0.561 -0.316,0.763 l -138.089,138.123 0,5.394 z"
       id="path103"
       inkscape:connector-curvature="0" /></g><g
     id="g105"
     transform="matrix(0.69040642,0,0,0.68990265,-19.121285,40.551435)"><path
       d="m 253.89,606.56 c -0.276,0 -0.552,-0.105 -0.763,-0.316 -0.421,-0.421 -0.421,-1.103 0,-1.524 L 367.285,490.654 c 0.421,-0.422 1.103,-0.422 1.524,0 0.421,0.421 0.421,1.103 0,1.524 L 254.652,606.244 c -0.211,0.211 -0.487,0.316 -0.762,0.316 z"
       id="path107"
       inkscape:connector-curvature="0" /></g><g
     id="g109"
     transform="matrix(0.69040642,0,0,0.68990265,-19.121285,40.551435)"><g
       id="g111"><g
         id="g113"><path
           d="m 54.403,441.229 c 0,8.872 7.195,16.069 16.063,16.069 l 87.496,0 c 8.874,0 16.072,-7.197 16.072,-16.069 l 0,-13.526 -119.631,0 0,13.526 z"
           id="path115"
           inkscape:connector-curvature="0"
           style="fill:#a7a9ac" /><path
           d="m 157.962,458.377 -87.496,0 c -9.451,0 -17.141,-7.692 -17.141,-17.148 l 0,-13.526 c 0,-0.596 0.482,-1.078 1.078,-1.078 l 119.63,0 c 0.596,0 1.078,0.482 1.078,1.078 l 0,13.526 c 0.001,9.456 -7.692,17.148 -17.149,17.148 z m -102.481,-29.596 0,12.448 c 0,8.267 6.722,14.991 14.985,14.991 l 87.496,0 c 8.268,0 14.994,-6.725 14.994,-14.991 l 0,-12.448 -117.475,0 z"
           id="path117"
           inkscape:connector-curvature="0" /></g><g
         id="g119"><path
           d="m 174.034,352.568 c 0,-8.873 -7.198,-16.069 -16.072,-16.069 l -87.496,0 c -8.868,0 -16.063,7.197 -16.063,16.069 l 0,12.353 119.63,0 0,-12.353 z"
           id="path121"
           inkscape:connector-curvature="0"
           style="fill:#a7a9ac" /><path
           d="m 174.034,365.999 -119.631,0 c -0.596,0 -1.078,-0.482 -1.078,-1.078 l 0,-12.353 c 0,-9.455 7.69,-17.147 17.141,-17.147 l 87.496,0 c 9.458,0 17.15,7.692 17.15,17.147 l 0,12.353 c 0,0.596 -0.483,1.078 -1.078,1.078 z m -118.553,-2.156 117.474,0 0,-11.274 c 0,-8.266 -6.726,-14.991 -14.994,-14.991 l -87.495,0 c -8.263,0 -14.985,6.725 -14.985,14.991 l 0,11.274 z"
           id="path123"
           inkscape:connector-curvature="0" /></g><g
         id="g125"><rect
           x="54.403"
           y="364.92099"
           width="119.63"
           height="62.782001"
           id="rect127"
           style="fill:#ffffff" /><path
           d="m 174.034,428.781 -119.631,0 c -0.596,0 -1.078,-0.483 -1.078,-1.078 l 0,-62.782 c 0,-0.596 0.482,-1.078 1.078,-1.078 l 119.63,0 c 0.596,0 1.078,0.482 1.078,1.078 l 0,62.782 c 0.001,0.596 -0.482,1.078 -1.077,1.078 z m -118.553,-2.156 117.474,0 0,-60.626 -117.474,0 0,60.626 z"
           id="path129"
           inkscape:connector-curvature="0" /></g></g><g
       id="g131"><path
         d="m 155.94,337.577 -83.452,0 c -0.596,0 -1.078,-0.482 -1.078,-1.078 l 0,-25.153 c 0,-21.301 17.333,-38.632 38.637,-38.632 l 8.343,0 c 21.3,0 38.629,17.331 38.629,38.632 l 0,25.153 c 0,0.596 -0.482,1.078 -1.079,1.078 z m -82.374,-2.156 81.296,0 0,-24.075 c 0,-20.113 -16.362,-36.476 -36.472,-36.476 l -8.343,0 c -20.115,0 -36.481,16.363 -36.481,36.476 l 0,24.075 z"
         id="path133"
         inkscape:connector-curvature="0" /></g><g
       id="g135"><path
         d="m 128.498,390.31 c 0,-7.888 -6.397,-14.28 -14.282,-14.28 -7.885,0 -14.279,6.392 -14.279,14.28 0,5.63 3.27,10.489 8.008,12.812 l 0,14.418 12.534,0 0,-14.418 c 4.747,-2.322 8.019,-7.182 8.019,-12.812 z"
         id="path137"
         inkscape:connector-curvature="0"
         style="fill:#a7a9ac" /><path
         d="m 120.479,418.619 -12.534,0 c -0.596,0 -1.078,-0.482 -1.078,-1.078 l 0,-13.762 c -4.957,-2.699 -8.008,-7.8 -8.008,-13.469 0,-8.468 6.89,-15.358 15.357,-15.358 8.47,0 15.36,6.89 15.36,15.358 0,5.67 -3.056,10.771 -8.019,13.469 l 0,13.762 c 0,0.596 -0.482,1.078 -1.078,1.078 z m -11.456,-2.156 10.377,0 0,-13.34 c 0,-0.411 0.233,-0.787 0.604,-0.969 4.574,-2.238 7.414,-6.777 7.414,-11.844 0,-7.28 -5.923,-13.202 -13.203,-13.202 -7.28,0 -13.201,5.922 -13.201,13.202 0,5.066 2.837,9.605 7.404,11.846 0.371,0.181 0.604,0.556 0.604,0.967 l 0,13.34 z"
         id="path139"
         inkscape:connector-curvature="0" /></g></g><g
     id="g141"
     transform="matrix(0.69040642,0,0,0.68990265,-19.121285,40.551435)"><g
       id="g143"><path
         d="m 240.673,106.695 -31.736,0 c -0.596,0 -1.078,-0.482 -1.078,-1.078 0,-10.929 -2.194,-21.571 -6.521,-31.629 -0.144,-0.334 -0.11,-0.716 0.088,-1.02 0.2,-0.303 0.539,-0.485 0.901,-0.485 l 30.129,0 c 0.394,0 0.756,0.214 0.946,0.558 5.462,9.931 8.349,21.196 8.349,32.576 0,0.595 -0.481,1.078 -1.078,1.078 z m -30.664,-2.156 29.578,0 C 239.414,94.101 236.738,83.801 231.816,74.64 l -27.868,0 c 3.892,9.55 5.928,19.595 6.061,29.899 z"
         id="path145"
         inkscape:connector-curvature="0" /></g><g
       id="g147"><path
         d="m 232.456,74.639 -30.129,0 c -0.432,0 -0.821,-0.257 -0.992,-0.653 -0.88,-2.055 -1.708,-3.821 -2.529,-5.397 -5.941,-11.406 -14.669,-21.354 -25.24,-28.768 -0.385,-0.27 -0.552,-0.759 -0.408,-1.209 0.141,-0.447 0.558,-0.752 1.027,-0.752 l 0.002,0 c 17.613,0.05 34.287,6.834 46.949,19.105 4.865,4.713 8.99,10.122 12.267,16.077 0.183,0.334 0.177,0.74 -0.017,1.068 -0.195,0.328 -0.548,0.529 -0.93,0.529 z m -29.421,-2.156 27.569,0 c -3.013,-5.138 -6.696,-9.831 -10.967,-13.97 -11.435,-11.08 -26.249,-17.54 -42.025,-18.398 9.594,7.354 17.541,16.793 23.107,27.479 0.757,1.453 1.517,3.059 2.316,4.889 z"
         id="path149"
         inkscape:connector-curvature="0" /></g><g
       id="g151"><path
         d="m 145.66,74.639 -30.13,0 c -0.381,0 -0.735,-0.201 -0.929,-0.529 -0.194,-0.328 -0.2,-0.734 -0.017,-1.068 3.272,-5.949 7.399,-11.357 12.271,-16.077 12.664,-12.271 29.338,-19.055 46.949,-19.105 l 0.002,0 c 0.47,0 0.886,0.305 1.027,0.752 0.144,0.45 -0.023,0.939 -0.408,1.21 -10.578,7.415 -19.304,17.362 -25.236,28.766 -0.802,1.537 -1.586,3.202 -2.54,5.401 -0.17,0.396 -0.559,0.65 -0.989,0.65 z m -28.277,-2.156 27.571,0 c 0.851,-1.936 1.577,-3.465 2.323,-4.892 5.557,-10.683 13.503,-20.122 23.101,-27.477 -15.774,0.858 -30.587,7.319 -42.023,18.398 -4.275,4.144 -7.96,8.837 -10.972,13.971 z"
         id="path153"
         inkscape:connector-curvature="0" /></g><g
       id="g155"><path
         d="m 139.052,106.695 -31.741,0 c -0.596,0 -1.078,-0.482 -1.078,-1.078 0,-11.377 2.889,-22.642 8.352,-32.576 0.189,-0.344 0.552,-0.558 0.945,-0.558 l 30.13,0 c 0.362,0 0.701,0.182 0.901,0.485 0.198,0.302 0.232,0.686 0.088,1.018 -4.326,10.066 -6.52,20.708 -6.52,31.63 0.001,0.596 -0.481,1.079 -1.077,1.079 z m -30.654,-2.156 29.582,0 c 0.133,-10.298 2.169,-20.342 6.061,-29.899 l -27.87,0 c -4.924,9.163 -7.6,19.463 -7.773,29.899 z"
         id="path157"
         inkscape:connector-curvature="0" /></g><g
       id="g159"><path
         d="m 174.185,40.017 c -0.008,0 -0.114,-0.003 -0.124,-0.003 l -0.11,-0.732 -0.092,0.139 -0.053,0.596 c -0.47,0 -0.887,-0.306 -1.028,-0.754 -0.141,-0.449 0.023,-0.938 0.409,-1.208 0.379,-0.278 1.061,-0.399 1.447,-0.121 0.392,0.266 0.642,0.812 0.503,1.265 -0.139,0.452 -0.478,0.818 -0.952,0.818 z"
         id="path161"
         inkscape:connector-curvature="0" /></g><g
       id="g163"><path
         d="m 173.996,74.639 -28.336,0 c -0.362,0 -0.701,-0.183 -0.901,-0.486 -0.2,-0.304 -0.231,-0.688 -0.088,-1.02 0.975,-2.25 1.779,-3.959 2.607,-5.541 6.09,-11.708 15.05,-21.922 25.91,-29.536 0.669,-0.467 1.887,0.062 1.887,0.88 l 0,34.625 c -10e-4,0.596 -0.483,1.078 -1.079,1.078 z m -26.683,-2.156 25.604,0 0,-31.579 c -9.899,7.289 -18.081,16.827 -23.728,27.684 -0.608,1.166 -1.206,2.405 -1.876,3.895 z"
         id="path165"
         inkscape:connector-curvature="0" /></g><g
       id="g167"><path
         d="m 173.996,106.695 -34.943,0 c -0.596,0 -1.079,-0.482 -1.079,-1.078 0,-11.217 2.253,-22.146 6.697,-32.481 0.169,-0.396 0.558,-0.653 0.99,-0.653 l 28.335,0 c 0.596,0 1.078,0.482 1.078,1.078 l 0,32.056 c 0,0.595 -0.482,1.078 -1.078,1.078 z m -33.859,-2.156 32.781,0 0,-29.9 -26.544,0 c -4.003,9.541 -6.101,19.59 -6.237,29.9 z"
         id="path169"
         inkscape:connector-curvature="0" /></g><g
       id="g171"><path
         d="m 202.327,74.639 -28.332,0 c -0.596,0 -1.078,-0.482 -1.078,-1.078 l 0,-34.625 c 0,-0.596 0.482,-1.078 1.078,-1.078 0.221,0 0.627,0.072 0.809,0.199 10.854,7.611 19.815,17.824 25.914,29.537 0.846,1.624 1.697,3.438 2.601,5.542 0.141,0.334 0.107,0.716 -0.091,1.02 -0.2,0.301 -0.539,0.483 -0.901,0.483 z m -27.253,-2.156 25.604,0 c -0.643,-1.432 -1.259,-2.715 -1.872,-3.894 C 193.15,57.73 184.969,48.193 175.074,40.905 l 0,31.578 z"
         id="path173"
         inkscape:connector-curvature="0" /></g><g
       id="g175"><path
         d="m 208.937,106.695 -34.941,0 c -0.596,0 -1.078,-0.482 -1.078,-1.078 l 0,-32.056 c 0,-0.596 0.482,-1.078 1.078,-1.078 l 28.332,0 c 0.432,0 0.819,0.256 0.99,0.652 4.445,10.33 6.698,21.258 6.698,32.482 -0.001,0.595 -0.483,1.078 -1.079,1.078 z m -33.863,-2.156 32.779,0 C 207.716,94.224 205.619,84.174 201.614,74.64 l -26.54,0 0,29.899 z"
         id="path177"
         inkscape:connector-curvature="0" /></g><g
       id="g179"><path
         d="m 232.456,138.751 -30.132,0 c -0.362,0 -0.701,-0.182 -0.901,-0.485 -0.198,-0.303 -0.232,-0.686 -0.089,-1.02 4.33,-10.058 6.524,-20.7 6.524,-31.629 0,-0.596 0.482,-1.078 1.078,-1.078 l 31.736,0 c 0.596,0 1.078,0.482 1.078,1.078 0,11.382 -2.887,22.647 -8.349,32.576 -0.188,0.344 -0.55,0.558 -0.945,0.558 z m -28.51,-2.157 27.87,0 c 4.921,-9.159 7.598,-19.459 7.771,-29.899 l -29.578,0 c -0.133,10.303 -2.171,20.348 -6.063,29.899 z"
         id="path181"
         inkscape:connector-curvature="0" /></g><g
       id="g183"><path
         d="m 174.177,173.373 c -0.47,0 -0.887,-0.304 -1.028,-0.753 -0.143,-0.449 0.023,-0.939 0.409,-1.209 10.569,-7.404 19.297,-17.351 25.24,-28.765 0.827,-1.583 1.634,-3.299 2.537,-5.399 0.168,-0.395 0.558,-0.653 0.99,-0.653 l 30.132,0 c 0.381,0 0.735,0.201 0.929,0.53 0.194,0.328 0.2,0.734 0.017,1.068 -3.279,5.96 -7.406,11.368 -12.267,16.073 -12.662,12.275 -29.34,19.061 -46.957,19.108 l -0.002,0 z m 28.855,-34.622 c -0.812,1.861 -1.558,3.43 -2.322,4.893 -5.566,10.691 -13.513,20.129 -23.105,27.475 15.781,-0.857 30.595,-7.319 42.032,-18.403 4.269,-4.132 7.951,-8.823 10.967,-13.965 l -27.572,0 z"
         id="path185"
         inkscape:connector-curvature="0" /></g><g
       id="g187"><path
         d="m 173.806,173.373 -0.002,0 c -17.622,-0.047 -34.295,-6.834 -46.949,-19.109 -4.867,-4.71 -8.996,-10.118 -12.271,-16.072 -0.184,-0.334 -0.177,-0.74 0.017,-1.068 0.194,-0.329 0.548,-0.53 0.929,-0.53 l 30.13,0 c 0.43,0 0.819,0.255 0.99,0.65 0.937,2.167 1.746,3.882 2.54,5.4 5.936,11.41 14.661,21.358 25.236,28.767 0.385,0.27 0.552,0.76 0.408,1.209 -0.142,0.448 -0.558,0.753 -1.028,0.753 z m -56.423,-34.622 c 3.014,5.137 6.699,9.829 10.971,13.964 11.428,11.085 26.24,17.546 42.023,18.404 -9.596,-7.351 -17.542,-16.789 -23.101,-27.477 -0.737,-1.409 -1.482,-2.977 -2.323,-4.892 l -27.57,0 z"
         id="path189"
         inkscape:connector-curvature="0" /></g><g
       id="g191"><path
         d="m 145.66,138.751 -30.13,0 c -0.394,0 -0.756,-0.214 -0.945,-0.558 -5.462,-9.932 -8.352,-21.196 -8.352,-32.576 0,-0.596 0.482,-1.078 1.078,-1.078 l 31.741,0 c 0.596,0 1.078,0.482 1.078,1.078 0,10.92 2.194,21.562 6.52,31.63 0.143,0.333 0.109,0.716 -0.088,1.019 -0.201,0.302 -0.54,0.485 -0.902,0.485 z m -29.49,-2.157 27.87,0 c -3.891,-9.559 -5.928,-19.603 -6.061,-29.899 l -29.582,0 c 0.174,10.436 2.85,20.738 7.773,29.899 z"
         id="path193"
         inkscape:connector-curvature="0" /></g><g
       id="g195"><path
         d="m 173.899,173.452 c -0.192,0 -0.373,-0.04 -0.512,-0.136 -0.004,-0.002 -0.088,-0.062 -0.093,-0.065 -0.385,-0.271 -0.605,-0.796 -0.461,-1.245 0.141,-0.447 0.503,-0.79 0.973,-0.79 l 0.179,0.81 0.025,-0.039 0.038,-0.768 c 0.493,-0.029 0.952,0.279 1.104,0.73 0.154,0.451 0.038,0.946 -0.348,1.222 -0.231,0.166 -0.583,0.281 -0.905,0.281 z"
         id="path197"
         inkscape:connector-curvature="0" /></g><g
       id="g199"><path
         d="m 173.996,173.377 c -0.013,0 -0.118,-0.002 -0.13,-0.003 -0.208,-0.006 -0.508,-0.076 -0.678,-0.196 -10.855,-7.608 -19.815,-17.822 -25.91,-29.536 -0.819,-1.564 -1.647,-3.326 -2.607,-5.542 -0.143,-0.333 -0.112,-0.717 0.088,-1.02 0.2,-0.303 0.539,-0.487 0.901,-0.487 l 28.335,0 c 0.596,0 1.078,0.482 1.078,1.078 l 0,34.627 c 0.001,0.597 -0.481,1.079 -1.077,1.079 z m -26.683,-34.626 c 0.667,1.483 1.274,2.746 1.876,3.893 5.652,10.864 13.831,20.401 23.728,27.685 l 0,-31.578 -25.604,0 z"
         id="path201"
         inkscape:connector-curvature="0" /></g><g
       id="g203"><path
         d="m 173.996,138.751 -28.336,0 c -0.432,0 -0.821,-0.257 -0.99,-0.653 -4.443,-10.338 -6.697,-21.267 -6.697,-32.481 0,-0.596 0.482,-1.078 1.079,-1.078 l 34.943,0 c 0.596,0 1.078,0.482 1.078,1.078 l 0,32.055 c 0.001,0.596 -0.481,1.079 -1.077,1.079 z m -27.622,-2.157 26.544,0 0,-29.899 -32.781,0 c 0.136,10.307 2.232,20.357 6.237,29.899 z"
         id="path205"
         inkscape:connector-curvature="0" /></g><g
       id="g207"><path
         d="m 174.177,173.373 c -0.596,0 -1.259,-0.478 -1.259,-1.074 l 0,-34.627 c 0,-0.596 0.482,-1.078 1.078,-1.078 l 28.329,0 c 0.362,0 0.701,0.182 0.901,0.485 0.198,0.302 0.232,0.686 0.088,1.019 -0.924,2.152 -1.752,3.915 -2.604,5.546 -6.101,11.719 -15.063,21.932 -25.914,29.534 -0.181,0.126 -0.398,0.195 -0.619,0.195 z m 0.897,-34.622 0,31.573 c 9.889,-7.279 18.068,-16.814 23.724,-27.678 0.621,-1.188 1.229,-2.451 1.878,-3.895 l -25.602,0 z"
         id="path209"
         inkscape:connector-curvature="0" /></g><g
       id="g211"><path
         d="m 202.325,138.751 -28.329,0 c -0.596,0 -1.078,-0.482 -1.078,-1.079 l 0,-32.055 c 0,-0.596 0.482,-1.078 1.078,-1.078 l 34.941,0 c 0.596,0 1.078,0.482 1.078,1.078 0,11.224 -2.253,22.152 -6.701,32.482 -0.17,0.396 -0.558,0.652 -0.989,0.652 z m -27.251,-2.157 26.537,0 c 4.007,-9.534 6.105,-19.583 6.242,-29.899 l -32.779,0 0,29.899 z"
         id="path213"
         inkscape:connector-curvature="0" /></g></g><g
     id="g215"
     transform="matrix(0.69040642,0,0,0.68990265,-19.121285,40.551435)"><g
       id="g217"><g
         id="g219"><g
           id="g221"><rect
             x="54.972"
             y="61.188"
             width="119.022"
             height="25.25"
             id="rect223"
             style="fill:#ffffff" /><path
             d="m 173.994,87.515 -119.022,0 c -0.596,0 -1.078,-0.482 -1.078,-1.078 l 0,-25.249 c 0,-0.596 0.482,-1.078 1.078,-1.078 l 119.022,0 c 0.596,0 1.078,0.482 1.078,1.078 l 0,25.249 c 0,0.596 -0.483,1.078 -1.078,1.078 z M 56.05,85.359 l 116.866,0 0,-23.093 -116.866,0 0,23.093 z"
             id="path225"
             inkscape:connector-curvature="0" /></g><g
           id="g227"><rect
             x="54.972"
             y="217.659"
             width="119.022"
             height="29.830999"
             id="rect229"
             style="fill:#ffffff" /><path
             d="m 173.994,248.567 -119.022,0 c -0.596,0 -1.078,-0.482 -1.078,-1.078 l 0,-29.831 c 0,-0.596 0.482,-1.078 1.078,-1.078 l 119.022,0 c 0.596,0 1.078,0.482 1.078,1.078 l 0,29.831 c 0,0.596 -0.483,1.078 -1.078,1.078 z m -117.944,-2.156 116.866,0 0,-27.674 -116.866,0 0,27.674 z"
             id="path231"
             inkscape:connector-curvature="0" /></g><g
           id="g233"><rect
             x="54.972"
             y="86.436996"
             width="119.022"
             height="131.222"
             id="rect235"
             style="fill:#e6e7e8" /><path
             d="m 173.994,218.737 -119.022,0 c -0.596,0 -1.078,-0.482 -1.078,-1.078 l 0,-131.222 c 0,-0.596 0.482,-1.078 1.078,-1.078 l 119.022,0 c 0.596,0 1.078,0.482 1.078,1.078 l 0,131.222 c 0,0.595 -0.483,1.078 -1.078,1.078 z m -117.944,-2.156 116.866,0 0,-129.066 -116.866,0 0,129.066 z"
             id="path237"
             inkscape:connector-curvature="0" /></g></g><g
         id="g239"
         style="fill:#8cd1ff;fill-opacity:1;stroke:#666666"><circle
           cx="114.482"
           cy="232.573"
           r="9.4799995"
           id="circle241"
           style="fill:#8cd1ff;fill-opacity:1;stroke:#666666" /><path
           d="m 114.481,243.131 c -5.822,0 -10.558,-4.737 -10.558,-10.559 0,-5.821 4.736,-10.558 10.558,-10.558 5.823,0 10.559,4.737 10.559,10.558 0,5.823 -4.736,10.559 -10.559,10.559 z m 0,-18.96 c -4.632,0 -8.402,3.77 -8.402,8.402 0,4.633 3.77,8.402 8.402,8.402 4.633,0 8.402,-3.77 8.402,-8.402 0.001,-4.633 -3.769,-8.402 -8.402,-8.402 z"
           id="path243"
           inkscape:connector-curvature="0"
           style="fill:#8cd1ff;fill-opacity:1;stroke:#666666" /></g><g
         id="g245"><line
           x1="149.69901"
           y1="78.513"
           x2="140.299"
           y2="69.112"
           id="line247"
           style="fill:#ffffff" /><path
           d="m 149.699,79.591 c -0.276,0 -0.551,-0.105 -0.762,-0.316 l -9.4,-9.401 c -0.421,-0.421 -0.421,-1.104 0,-1.525 0.421,-0.421 1.104,-0.421 1.525,0 l 9.4,9.401 c 0.421,0.421 0.421,1.103 0,1.525 -0.211,0.211 -0.487,0.316 -0.763,0.316 z"
           id="path249"
           inkscape:connector-curvature="0" /></g><g
         id="g251"><line
           x1="149.701"
           y1="69.112"
           x2="140.299"
           y2="78.512001"
           id="line253"
           style="fill:#ffffff" /><path
           d="m 140.299,79.59 c -0.276,0 -0.552,-0.105 -0.763,-0.315 -0.421,-0.421 -0.421,-1.104 0,-1.525 l 9.403,-9.4 c 0.421,-0.421 1.103,-0.421 1.524,0 0.421,0.421 0.421,1.104 0,1.525 l -9.402,9.4 c -0.21,0.21 -0.486,0.315 -0.762,0.315 z"
           id="path255"
           inkscape:connector-curvature="0" /></g><g
         id="g257"><line
           x1="103.014"
           y1="73.813004"
           x2="125.952"
           y2="73.813004"
           id="line259"
           style="fill:#ffffff" /><path
           d="m 125.952,74.891 -22.938,0 c -0.596,0 -1.078,-0.482 -1.078,-1.078 0,-0.596 0.482,-1.078 1.078,-1.078 l 22.938,0 c 0.596,0 1.079,0.482 1.079,1.078 -0.001,0.596 -0.483,1.078 -1.079,1.078 z"
           id="path261"
           inkscape:connector-curvature="0" /></g></g><g
       id="g263"><line
         x1="151.683"
         y1="114.846"
         x2="77.280998"
         y2="189.25101"
         id="line265"
         style="fill:#ffffff" /><path
         d="m 77.281,190.329 c -0.276,0 -0.552,-0.105 -0.762,-0.316 -0.421,-0.421 -0.421,-1.104 0,-1.524 l 74.402,-74.404 c 0.421,-0.421 1.104,-0.421 1.524,0 0.421,0.421 0.421,1.104 0,1.525 l -74.402,74.404 c -0.211,0.209 -0.486,0.315 -0.762,0.315 z"
         id="path267"
         inkscape:connector-curvature="0" /></g><g
       id="g269"><line
         x1="149.51801"
         y1="152.23399"
         x2="116.996"
         y2="184.758"
         id="line271"
         style="fill:#ffffff" /><path
         d="m 116.996,185.836 c -0.276,0 -0.552,-0.105 -0.762,-0.316 -0.421,-0.421 -0.421,-1.104 0,-1.524 l 32.522,-32.524 c 0.421,-0.421 1.104,-0.421 1.525,0 0.421,0.421 0.421,1.104 0,1.525 l -32.522,32.524 c -0.211,0.209 -0.487,0.315 -0.763,0.315 z"
         id="path273"
         inkscape:connector-curvature="0" /></g></g><g
     id="g275"
     transform="matrix(0.69040642,0,0,0.68990265,-19.121285,40.551435)"><g
       id="g277"
       style="fill:#101626;fill-opacity:1"><circle
         cx="151.683"
         cy="462.82401"
         r="45.283001"
         id="circle279"
         style="fill:#101626;fill-opacity:1" /><path
         d="m 151.683,509.185 c -25.564,0 -46.361,-20.799 -46.361,-46.361 0,-25.563 20.797,-46.361 46.361,-46.361 25.564,0 46.361,20.798 46.361,46.361 0,25.563 -20.797,46.361 -46.361,46.361 z m 0,-90.566 c -24.375,0 -44.205,19.83 -44.205,44.205 0,24.375 19.831,44.205 44.205,44.205 24.374,0 44.205,-19.83 44.205,-44.205 0,-24.375 -19.831,-44.205 -44.205,-44.205 z"
         id="path281"
         inkscape:connector-curvature="0"
         style="fill:#101626;fill-opacity:1" /></g><g
       id="g283"
       style="fill:#ffffff"><path
         d="m 146.239,487.865 c -0.276,0 -0.552,-0.105 -0.762,-0.316 l -22.04,-22.039 c -0.421,-0.421 -0.421,-1.103 0,-1.524 0.421,-0.422 1.104,-0.422 1.525,0 l 21.277,21.276 34.998,-34.996 c 0.421,-0.421 1.104,-0.421 1.525,0 0.421,0.421 0.421,1.104 0,1.524 l -35.761,35.759 c -0.21,0.211 -0.486,0.316 -0.762,0.316 z"
         id="path285"
         inkscape:connector-curvature="0"
         style="fill:#ffffff" /></g></g><g
     id="g287"
     transform="matrix(0.69040642,0,0,0.68990265,-19.121285,40.551435)"><g
       id="g289"><polygon
         points="603.174,426.929 617.071,426.929 762.536,426.929 762.536,302.915 732.579,302.915 689.031,302.915 603.174,302.915 603.174,398.98 568.55,426.929 "
         id="polygon291"
         style="fill:#a7a9ac" /><path
         d="m 762.536,428.007 -193.986,0 c -0.457,0 -0.863,-0.289 -1.017,-0.72 -0.152,-0.431 -0.015,-0.91 0.339,-1.198 l 34.224,-27.624 0,-95.55 c 0,-0.596 0.481,-1.078 1.078,-1.078 l 159.362,0 c 0.596,0 1.078,0.482 1.078,1.078 l 0,124.014 c 0,0.595 -0.482,1.078 -1.078,1.078 z m -190.934,-2.156 189.856,0 0,-121.858 -157.206,0 0,94.987 c 0,0.326 -0.148,0.634 -0.4,0.839 l -32.25,26.032 z"
         id="path293"
         inkscape:connector-curvature="0" /></g><g
       id="g295"><g
         id="g297"><polygon
           points="620.192,392.985 648.676,364.5 669.857,385.68 706.998,348.541 744.765,386.311 744.765,320.5 620.192,320.5 "
           id="polygon299"
           style="fill:#ffffff" /><path
           d="m 620.192,394.063 c -0.139,0 -0.28,-0.026 -0.413,-0.082 -0.401,-0.166 -0.665,-0.56 -0.665,-0.996 l 0,-72.485 c 0,-0.596 0.482,-1.078 1.078,-1.078 l 124.572,0 c 0.597,0 1.078,0.482 1.078,1.078 l 0,65.812 c 0,0.436 -0.263,0.83 -0.665,0.996 -0.398,0.17 -0.865,0.076 -1.175,-0.233 l -37.005,-37.008 -36.378,36.377 c -0.421,0.421 -1.103,0.421 -1.524,0 l -20.42,-20.418 -27.721,27.723 c -0.206,0.205 -0.481,0.314 -0.762,0.314 z m 1.079,-72.485 0,68.805 26.643,-26.645 c 0.421,-0.421 1.104,-0.421 1.524,0 l 20.42,20.418 36.378,-36.376 c 0.404,-0.404 1.12,-0.404 1.524,0 l 35.927,35.93 0,-62.131 -122.416,0 z"
           id="path301"
           inkscape:connector-curvature="0" /></g><g
         id="g303"><polygon
           points="744.765,409.089 744.765,386.311 706.998,348.541 669.857,385.68 648.676,364.5 620.192,392.985 620.192,409.089 "
           id="polygon305"
           style="fill:#e6e7e8" /><path
           d="m 744.765,410.167 -124.573,0 c -0.596,0 -1.078,-0.482 -1.078,-1.078 l 0,-16.104 c 0,-0.286 0.114,-0.56 0.316,-0.762 l 28.482,-28.485 c 0.421,-0.421 1.104,-0.421 1.524,0 l 20.42,20.418 36.378,-36.376 c 0.404,-0.404 1.12,-0.404 1.524,0 l 37.768,37.77 c 0.202,0.202 0.315,0.476 0.315,0.762 l 0,22.777 c 0.002,0.596 -0.48,1.078 -1.076,1.078 z m -123.494,-2.156 122.416,0 0,-21.252 -36.688,-36.692 -36.378,36.377 c -0.421,0.421 -1.103,0.421 -1.524,0 l -20.42,-20.418 -27.405,27.407 0,14.578 z"
           id="path307"
           inkscape:connector-curvature="0" /></g></g><g
       id="g309"><circle
         cx="668.35602"
         cy="343.32001"
         r="10.921"
         id="circle311"
         style="fill:#fff48c" /><path
         d="m 668.358,355.317 c -6.616,0 -12.001,-5.382 -12.001,-11.998 0,-6.616 5.385,-12 12.001,-12 6.614,0 11.997,5.384 11.997,12 0,6.616 -5.382,11.998 -11.997,11.998 z m 0,-21.84 c -5.429,0 -9.845,4.415 -9.845,9.843 0,5.427 4.416,9.841 9.845,9.841 5.427,0 9.841,-4.414 9.841,-9.841 0,-5.428 -4.414,-9.843 -9.841,-9.843 z"
         id="path313"
         inkscape:connector-curvature="0" /></g></g><g
     id="g315"
     transform="matrix(0.69040642,0,0,0.68990265,-19.121285,40.551435)"><g
       id="g317"><polygon
         points="54.972,534.165 128.323,582.788 54.972,631.398 "
         id="polygon319"
         style="fill:#ffffff" /><path
         d="m 54.972,632.477 c -0.175,0 -0.35,-0.043 -0.509,-0.129 -0.35,-0.188 -0.569,-0.552 -0.569,-0.95 l 0,-97.233 c 0,-0.398 0.219,-0.763 0.569,-0.95 0.35,-0.189 0.773,-0.164 1.106,0.051 l 73.351,48.623 c 0.301,0.2 0.482,0.537 0.482,0.899 0,0.362 -0.181,0.698 -0.482,0.898 l -73.351,48.61 c -0.182,0.119 -0.389,0.181 -0.597,0.181 z m 1.078,-96.303 0,93.215 70.321,-46.601 -70.321,-46.614 z"
         id="path321"
         inkscape:connector-curvature="0" /></g><g
       id="g323"><polygon
         points="232.945,534.165 159.598,582.788 143.963,593.144 128.323,582.788 54.972,534.165 "
         id="polygon325"
         style="fill:#e6e7e8" /><path
         d="m 143.963,594.223 c -0.208,0 -0.415,-0.06 -0.596,-0.18 L 54.376,535.064 c -0.396,-0.264 -0.573,-0.754 -0.436,-1.211 0.137,-0.455 0.556,-0.767 1.032,-0.767 l 177.974,0 c 0.476,0 0.895,0.311 1.032,0.767 0.137,0.457 -0.04,0.947 -0.436,1.211 l -88.982,58.979 c -0.183,0.12 -0.389,0.18 -0.597,0.18 z m -85.413,-58.98 85.413,56.608 85.405,-56.608 -170.818,0 z"
         id="path327"
         inkscape:connector-curvature="0" /></g><g
       id="g329"><polygon
         points="190.998,631.398 54.972,631.398 128.323,582.788 143.963,593.144 159.598,582.788 232.945,631.398 232.945,631.398 "
         id="polygon331"
         style="fill:#e6e7e8" /><path
         d="m 232.987,632.477 c -0.01,0 -0.025,0 -0.042,0 l -177.973,0 c -0.476,0 -0.895,-0.312 -1.032,-0.767 -0.137,-0.457 0.04,-0.948 0.436,-1.211 l 73.351,-48.61 c 0.36,-0.238 0.828,-0.242 1.192,0 l 15.044,9.963 15.04,-9.963 c 0.362,-0.24 0.83,-0.24 1.192,0 l 73.187,48.505 c 0.402,0.158 0.684,0.548 0.684,1.004 -0.001,0.596 -0.483,1.079 -1.079,1.079 z m -174.437,-2.158 170.818,0 -69.77,-46.238 -15.04,9.962 c -0.362,0.24 -0.83,0.24 -1.192,0 l -15.044,-9.962 -69.772,46.238 z"
         id="path333"
         inkscape:connector-curvature="0" /></g><g
       id="g335"><polygon
         points="232.945,599.032 261.085,582.788 232.945,566.537 232.945,534.165 159.598,582.788 232.945,631.398 "
         id="polygon337"
         style="fill:#ffffff" /><path
         d="m 232.945,632.477 c -0.208,0 -0.415,-0.062 -0.596,-0.18 l -73.347,-48.61 c -0.301,-0.2 -0.482,-0.536 -0.482,-0.898 0,-0.362 0.181,-0.699 0.482,-0.899 l 73.347,-48.623 c 0.333,-0.215 0.754,-0.24 1.106,-0.051 0.349,0.188 0.568,0.552 0.568,0.95 l 0,31.749 27.601,15.94 c 0.333,0.192 0.539,0.548 0.539,0.934 0,0.385 -0.206,0.741 -0.539,0.933 l -27.601,15.935 0,31.742 c 0,0.398 -0.219,0.763 -0.568,0.95 -0.16,0.085 -0.335,0.128 -0.51,0.128 z m -71.395,-49.689 70.317,46.601 0,-30.356 c 0,-0.386 0.206,-0.741 0.539,-0.934 l 26.522,-15.31 -26.522,-15.318 c -0.333,-0.191 -0.539,-0.547 -0.539,-0.933 l 0,-30.363 -70.317,46.613 z"
         id="path339"
         inkscape:connector-curvature="0" /></g></g><g
     id="g341"
     transform="matrix(0.69040642,0,0,0.68990265,-19.121285,40.551435)"
     style="fill:#ffffff"><path
       d="m 343.289,125.495 -30.743,0 c -0.596,0 -1.078,-0.482 -1.078,-1.078 0,-0.596 0.482,-1.078 1.078,-1.078 l 30.743,0 c 0.596,0 1.078,0.482 1.078,1.078 0,0.596 -0.482,1.078 -1.078,1.078 z"
       id="path343"
       inkscape:connector-curvature="0"
       style="fill:#ffffff" /></g><g
     id="g345"
     transform="matrix(0.69040642,0,0,0.68990265,-19.121285,40.551435)"
     style="fill:#ffffff;fill-opacity:1"><path
       d="m 327.917,140.868 c -0.596,0 -1.078,-0.482 -1.078,-1.078 l 0,-30.744 c 0,-0.596 0.482,-1.078 1.078,-1.078 0.596,0 1.078,0.482 1.078,1.078 l 0,30.744 c 0,0.595 -0.482,1.078 -1.078,1.078 z"
       id="path347"
       inkscape:connector-curvature="0"
       style="fill:#ffffff;fill-opacity:1" /></g><g
     id="g349"
     transform="matrix(0.69040642,0,0,0.68990265,-19.121285,40.551435)"><path
       d="m 603.174,318.575 -87.121,0 c -0.596,0 -1.078,-0.482 -1.078,-1.078 0,-0.596 0.482,-1.078 1.078,-1.078 l 87.121,0 c 0.596,0 1.078,0.482 1.078,1.078 0,0.595 -0.483,1.078 -1.078,1.078 z"
       id="path351"
       inkscape:connector-curvature="0" /></g><g
     id="g353"
     transform="matrix(0.69040642,0,0,0.68990265,-19.121285,40.551435)"><path
       d="m 603.174,338.699 -54.303,0 c -0.596,0 -1.078,-0.482 -1.078,-1.078 0,-0.596 0.482,-1.078 1.078,-1.078 l 54.303,0 c 0.596,0 1.078,0.482 1.078,1.078 0,0.595 -0.483,1.078 -1.078,1.078 z"
       id="path355"
       inkscape:connector-curvature="0" /></g><g
     id="g357"
     transform="matrix(0.69040642,0,0,0.68990265,-19.121285,40.551435)"><path
       d="m 603.174,358.245 -23.189,0 c -0.596,0 -1.078,-0.482 -1.078,-1.078 0,-0.596 0.482,-1.078 1.078,-1.078 l 23.189,0 c 0.596,0 1.078,0.482 1.078,1.078 0,0.596 -0.483,1.078 -1.078,1.078 z"
       id="path359"
       inkscape:connector-curvature="0" /></g><g
     id="g361"
     transform="matrix(0.69040642,0,0,0.68990265,-19.121285,40.551435)"><path
       d="m 251.004,414.173 -39.972,0 c -0.596,0 -1.078,-0.483 -1.078,-1.078 0,-0.597 0.482,-1.078 1.078,-1.078 l 39.972,0 c 0.596,0 1.078,0.481 1.078,1.078 0,0.595 -0.481,1.078 -1.078,1.078 z"
       id="path363"
       inkscape:connector-curvature="0" /></g><g
     id="g365"
     transform="matrix(0.69040642,0,0,0.68990265,-19.121285,40.551435)"><path
       d="m 264.124,443.58 -53.091,0 c -0.596,0 -1.078,-0.482 -1.078,-1.078 0,-0.596 0.482,-1.078 1.078,-1.078 l 53.091,0 c 0.596,0 1.078,0.483 1.078,1.078 0,0.596 -0.482,1.078 -1.078,1.078 z"
       id="path367"
       inkscape:connector-curvature="0" /></g></svg>