<?xml version="1.0" encoding="utf-8"?>
<!-- Generator: Adobe Illustrator 17.0.0, SVG Export Plug-In . SVG Version: 6.00 Build 0)  -->
<!DOCTYPE svg PUBLIC "-//W3C//DTD SVG 1.1//EN" "http://www.w3.org/Graphics/SVG/1.1/DTD/svg11.dtd">
<svg version="1.1" id="Laag_1" xmlns="http://www.w3.org/2000/svg" xmlns:xlink="http://www.w3.org/1999/xlink" x="0px" y="0px"
	 width="145px" height="99px" viewBox="0 0 145 99" enable-background="new 0 0 145 99" xml:space="preserve">
<g id="layer1" transform="translate(0,-752.36216)">
	<g id="g13516" transform="matrix(2.0932372,0,0,-2.0932372,331.02196,837.33691)">
		<path id="path13518" fill="#00838F" d="M-101.08,27.853l-12.473-8.123l-3.33,5.114l12.473,8.123L-101.08,27.853z"/>
	</g>
	<g id="g13520" transform="matrix(2.0932372,0,0,-2.0932372,305.6919,831.66508)">
		<path id="path13522" fill="#00838F" d="M-93.19,26.086c0.909-1.395,2.776-1.789,4.171-0.881c1.395,0.908,1.789,2.776,0.881,4.171
			c-0.908,1.395-2.776,1.789-4.171,0.881C-93.704,29.348-94.099,27.481-93.19,26.086"/>
	</g>
	<g id="g13524" transform="matrix(2.0932372,0,0,-2.0932372,157.59559,945.47397)">
		<path id="path13526" fill="#00838F" d="M-47.061,61.535l-12.728-7.718l-3.164,5.218l12.728,7.718L-47.061,61.535z"/>
	</g>
	<g id="g13528" transform="matrix(2.0932372,0,0,-2.0932372,55.897954,985.41083)">
		<path id="path13530" fill="#00838F" d="M-15.384,73.975c0.863-1.424,2.717-1.878,4.14-1.015c1.424,0.863,1.878,2.717,1.015,4.14
			c-0.863,1.424-2.717,1.878-4.14,1.015C-15.793,77.252-16.247,75.398-15.384,73.975"/>
	</g>
	<g id="g13532" transform="matrix(2.0932372,0,0,-2.0932372,206.19469,1002.2289)">
		<path id="path13534" fill="#FFFFFF" d="M-62.199,79.213v9.369l20.284,11.711v-9.369L-62.199,79.213z"/>
	</g>
	<g id="g13536" transform="matrix(2.0932372,0,0,-2.0932372,206.19469,805.07909)">
		<path id="path13538" fill="#00838F" d="M-62.199,17.805V8.437l20.284-11.711v9.369L-62.199,17.805z"/>
	</g>
	<g id="g13540" transform="matrix(2.0932372,0,0,-2.0932372,195.16648,805.07909)">
		<path id="path13542" fill="#FFFFFF" d="M-58.764,17.805V8.437L-79.047-3.274v9.369L-58.764,17.805z"/>
	</g>
	<g id="g13544" transform="matrix(2.0932372,0,0,-2.0932372,195.16648,1002.2289)">
		<path id="path13546" fill="#00838F" d="M-58.764,79.213v9.369l-20.284,11.711v-9.369L-58.764,79.213z"/>
	</g>
</g>
</svg>
