<?xml version="1.0" encoding="utf-8"?>
<!-- Generator: Adobe Illustrator 17.0.0, SVG Export Plug-In . SVG Version: 6.00 Build 0)  -->
<!DOCTYPE svg PUBLIC "-//W3C//DTD SVG 1.1//EN" "http://www.w3.org/Graphics/SVG/1.1/DTD/svg11.dtd">
<svg version="1.1"
	 id="svg13637" xmlns:dc="http://purl.org/dc/elements/1.1/" xmlns:rdf="http://www.w3.org/1999/02/22-rdf-syntax-ns#" xmlns:cc="http://creativecommons.org/ns#" xmlns:svg="http://www.w3.org/2000/svg"
	 xmlns="http://www.w3.org/2000/svg" xmlns:xlink="http://www.w3.org/1999/xlink" x="0px" y="0px" width="400px" height="300px"
	 viewBox="0 0 400 300" enable-background="new 0 0 400 300" xml:space="preserve">
<rect width="400" height="300"/>
<g id="layer1" transform="translate(0,-752.36216)">
	<g id="g13516" transform="matrix(2.0932372,0,0,-2.0932372,331.02196,837.33691)">
		<path id="path13518" fill="#00838F" d="M-42.012,9.842l-12.473-8.123l-3.33,5.114l12.473,8.123L-42.012,9.842z"/>
	</g>
	<g id="g13520" transform="matrix(2.0932372,0,0,-2.0932372,305.6919,831.66508)">
		<path id="path13522" fill="#00838F" d="M-34.122,8.075c0.909-1.395,2.776-1.789,4.171-0.881c1.395,0.908,1.789,2.776,0.881,4.171
			c-0.908,1.395-2.776,1.789-4.171,0.881C-34.636,11.338-35.031,9.471-34.122,8.075"/>
	</g>
	<g id="g13524" transform="matrix(2.0932372,0,0,-2.0932372,157.59559,945.47397)">
		<path id="path13526" fill="#00838F" d="M12.007,43.525l-12.728-7.718l-3.164,5.218l12.728,7.718L12.007,43.525z"/>
	</g>
	<g id="g13528" transform="matrix(2.0932372,0,0,-2.0932372,55.897954,985.41083)">
		<path id="path13530" fill="#00838F" d="M43.683,55.964c0.863-1.424,2.717-1.878,4.14-1.015c1.424,0.863,1.878,2.717,1.015,4.14
			c-0.863,1.424-2.717,1.878-4.14,1.015C43.274,59.241,42.82,57.388,43.683,55.964"/>
	</g>
	<g id="g13532" transform="matrix(2.0932372,0,0,-2.0932372,206.19469,1002.2289)">
		<path id="path13534" fill="#FFFFFF" d="M-3.131,61.202v9.369l20.284,11.711v-9.369L-3.131,61.202z"/>
	</g>
	<g id="g13536" transform="matrix(2.0932372,0,0,-2.0932372,206.19469,805.07909)">
		<path id="path13538" fill="#00838F" d="M-3.131-0.206v-9.369l20.284-11.711v9.369L-3.131-0.206z"/>
	</g>
	<g id="g13540" transform="matrix(2.0932372,0,0,-2.0932372,195.16648,805.07909)">
		<path id="path13542" fill="#FFFFFF" d="M0.304-0.206v-9.369l-20.284-11.711v9.369L0.304-0.206z"/>
	</g>
	<g id="g13544" transform="matrix(2.0932372,0,0,-2.0932372,195.16648,1002.2289)">
		<path id="path13546" fill="#00838F" d="M0.304,61.202v9.369l-20.284,11.711v-9.369L0.304,61.202z"/>
	</g>
</g>
</svg>
