<svg xmlns="http://www.w3.org/2000/svg" viewBox="0 0 380 229"><defs><style>.cls-1{fill:none;}.cls-2{fill:#fbfcfc;}.cls-3{fill:#fff;}.cls-4{fill:#083949;}.cls-5{fill:#fed269;}.cls-6{fill:#1eaccd;}.cls-7{fill:#dce1ec;}.cls-8{fill:#a09797;}</style></defs><title>resp</title><g id="Laag_2" data-name="Laag 2"><g id="Layer_1" data-name="Layer 1"><rect class="cls-1" width="380" height="229" rx="12" ry="12"/><rect class="cls-2" x="143" y="144" width="41" height="27"/><rect class="cls-3" x="76.69" y="35.09" width="174.64" height="99.59"/><path class="cls-4" d="M250.87,29.22H76.26a5,5,0,0,0-5,5V141.07a5,5,0,0,0,5,5H250.87a5,5,0,0,0,5-5V34.21A5,5,0,0,0,250.87,29.22ZM249.2,133H78.2V36.16h171Z"/><rect class="cls-5" x="83" y="41" width="50" height="21"/><rect class="cls-6" x="83" y="67" width="161" height="21"/><rect class="cls-5" x="83" y="123" width="161" height="5"/><rect class="cls-7" x="138" y="41" width="106" height="21"/><rect class="cls-4" x="83" y="93" width="50" height="5"/><rect class="cls-4" x="138" y="93" width="51" height="5"/><rect class="cls-8" x="194" y="93" width="50" height="25"/><rect class="cls-4" x="83" y="103" width="50" height="5"/><rect class="cls-4" x="138" y="103" width="51" height="5"/><rect class="cls-4" x="83" y="113" width="50" height="5"/><rect class="cls-4" x="138" y="113" width="51" height="5"/><path class="cls-3" d="M207.75,97.84V113.4h23.12V97.84Zm19.48,1.73a1.94,1.94,0,1,1-1.94,1.94A1.94,1.94,0,0,1,227.23,99.57ZM210,111.18v-5.79l1.85-3.87,3.83,5.81,3.85-3.88,3.86,5.81,1.93-1.95,3.87,3.86Z"/><rect class="cls-4" x="132" y="171" width="63" height="5"/><path class="cls-7" d="M40.32,188.22a5.6,5.6,0,0,1-5.59-5.59V108.17a5.6,5.6,0,0,1,5.59-5.59H97.79a5.6,5.6,0,0,1,5.59,5.59v74.46a5.6,5.6,0,0,1-5.59,5.59ZM92.2,177V113.76H45.91V177Z"/><rect class="cls-3" x="41.76" y="110.51" width="53.62" height="69.37"/><path class="cls-4" d="M97.79,104.58H40.32a3.59,3.59,0,0,0-3.59,3.59v74.46a3.59,3.59,0,0,0,3.59,3.59H97.79a3.59,3.59,0,0,0,3.59-3.59V108.17A3.59,3.59,0,0,0,97.79,104.58Zm-28.62,80a2,2,0,1,1,2-2A2,2,0,0,1,69.17,184.57Zm25-5.53H43.91V111.76H94.2Z"/><rect class="cls-5" x="46" y="114" width="14" height="8"/><rect class="cls-6" x="46" y="162" width="14" height="8"/><rect class="cls-6" x="62" y="162" width="14" height="8"/><rect class="cls-6" x="78" y="162" width="14" height="8"/><rect class="cls-6" x="46" y="124" width="46" height="8"/><rect class="cls-4" x="46" y="134" width="46" height="2"/><rect class="cls-4" x="46" y="138" width="46" height="2"/><rect class="cls-4" x="46" y="142" width="46" height="2"/><rect class="cls-5" x="46" y="158" width="46" height="2"/><rect class="cls-4" x="46" y="146" width="24" height="2"/><rect class="cls-4" x="46" y="150" width="24" height="2"/><rect class="cls-4" x="46" y="154" width="24" height="2"/><rect class="cls-7" x="62" y="114" width="30" height="8"/><rect class="cls-7" x="46" y="172" width="46" height="5"/><rect class="cls-8" x="72" y="146" width="20" height="10"/><path class="cls-3" d="M77.55,148v6.28h9.33V148Zm7.86.7a.78.78,0,1,1-.78.78A.78.78,0,0,1,85.42,148.65Zm-7,4.68V151l.75-1.56,1.55,2.35,1.56-1.56,1.56,2.35.78-.79,1.56,1.56Z"/><path class="cls-7" d="M88.39,198.22a4.59,4.59,0,0,1-4.58-4.58V145.69a4.59,4.59,0,0,1,4.58-4.58h21.29a4.59,4.59,0,0,1,4.58,4.58v47.94a4.59,4.59,0,0,1-4.58,4.58Zm10.32-5.5a.62.62,0,1,0,.62.62A.62.62,0,0,0,98.7,192.71Zm10.75-4.31V151.72H88.61V188.4Z"/><rect class="cls-3" x="86" y="149" width="26" height="42"/><path class="cls-4" d="M109.68,142.61H88.39a3.09,3.09,0,0,0-3.08,3.08v47.94a3.09,3.09,0,0,0,3.08,3.08h21.29a3.08,3.08,0,0,0,3.08-3.08V145.69A3.08,3.08,0,0,0,109.68,142.61Zm-11,52.84a2.12,2.12,0,1,1,2.12-2.12A2.12,2.12,0,0,1,98.7,195.45ZM111,189.9H87.11V150.22H111Z"/><rect class="cls-6" x="89" y="180" width="6" height="4"/><rect class="cls-6" x="95" y="180" width="7" height="4"/><rect class="cls-6" x="103" y="180" width="6" height="4"/><rect class="cls-5" x="89" y="152" width="20" height="5"/><rect class="cls-6" x="89" y="157" width="20" height="5"/><rect class="cls-4" x="89" y="164" width="20" height="1"/><rect class="cls-5" x="89" y="184.54" width="20" height="3.25"/><rect class="cls-4" x="89" y="166" width="20" height="1"/><rect class="cls-5" x="89" y="177" width="20" height="1"/><rect class="cls-8" x="92.8" y="169" width="12.6" height="7"/><path class="cls-3" d="M95.38,169.86v5.08h7v-5.08Zm5.87.57a.63.63,0,1,1-.59.63A.61.61,0,0,1,101.25,170.42ZM96,174.21v-1.89l.56-1.27,1.15,1.9,1.16-1.27,1.16,1.9.58-.64,1.16,1.26Z"/><path class="cls-7" d="M222.53,185.52a4.74,4.74,0,0,1-4.73-4.73V111a4.74,4.74,0,0,1,4.73-4.74H329.68a4.74,4.74,0,0,1,4.74,4.74v69.79a4.74,4.74,0,0,1-4.74,4.73Zm102.39-8.95V115.75H227.29v60.83Z"/><rect class="cls-3" x="224.15" y="112.88" width="105.04" height="67.21"/><path class="cls-4" d="M329.68,108.25H222.53A2.73,2.73,0,0,0,219.8,111v69.79a2.73,2.73,0,0,0,2.73,2.73H329.68a2.74,2.74,0,0,0,2.74-2.73V111A2.74,2.74,0,0,0,329.68,108.25Zm-2.76,70.32H225.29V113.75H326.92Z"/><path class="cls-4" d="M348.85,188c.21,0,.15-.27.15-.5V186H203v1.46c0,.23.45.54.58.54h-.21s2.82,3,6.43,3H342.33c3.6,0,6.74-3,6.74-3Z"/><rect class="cls-5" x="228" y="116" width="30" height="15"/><rect class="cls-6" x="228" y="134" width="96" height="15"/><rect class="cls-5" x="228" y="172" width="96" height="4"/><rect class="cls-7" x="261" y="116" width="63" height="15"/><rect class="cls-4" x="228" y="152" width="30" height="3"/><rect class="cls-4" x="261" y="152" width="30" height="3"/><rect class="cls-4" x="228" y="159" width="30" height="3"/><rect class="cls-4" x="261" y="159" width="30" height="3"/><rect class="cls-4" x="228" y="166" width="30" height="3"/><rect class="cls-4" x="261" y="166" width="30" height="3"/><rect class="cls-8" x="294" y="152" width="30" height="17"/><path class="cls-3" d="M301.32,155.36v10.78h15.33V155.36Zm12.92,1.2A1.34,1.34,0,1,1,313,157.9,1.31,1.31,0,0,1,314.24,156.56Zm-11.45,8v-4L304,157.9l2.54,4,2.56-2.68,2.56,4,1.28-1.35,2.57,2.68Z"/></g></g></svg>